<svg width="41" height="41" viewBox="0 0 41 41" fill="none" xmlns="http://www.w3.org/2000/svg">
<path d="M20.3814 25.6667C23.3006 25.6667 25.6671 23.3002 25.6671 20.381C25.6671 17.4617 23.3006 15.0952 20.3814 15.0952C17.4622 15.0952 15.0957 17.4617 15.0957 20.381C15.0957 23.3002 17.4622 25.6667 20.3814 25.6667Z" stroke="#00BC80" stroke-width="2" stroke-linecap="round" stroke-linejoin="round"/>
<path d="M33.419 25.6667C33.1845 26.1981 33.1146 26.7876 33.2182 27.3591C33.3218 27.9307 33.5943 28.4581 34.0005 28.8733L34.1062 28.979C34.4338 29.3063 34.6937 29.695 34.8711 30.1227C35.0484 30.5505 35.1397 31.0091 35.1397 31.4721C35.1397 31.9352 35.0484 32.3938 34.8711 32.8216C34.6937 33.2493 34.4338 33.638 34.1062 33.9652C33.7789 34.2929 33.3903 34.5528 32.9625 34.7301C32.5347 34.9074 32.0762 34.9987 31.6131 34.9987C31.15 34.9987 30.6915 34.9074 30.2637 34.7301C29.8359 34.5528 29.4473 34.2929 29.12 33.9652L29.0143 33.8595C28.599 33.4533 28.0716 33.1809 27.5001 33.0772C26.9285 32.9736 26.339 33.0436 25.8076 33.2781C25.2865 33.5014 24.8421 33.8723 24.529 34.345C24.216 34.8177 24.048 35.3716 24.0457 35.9386V36.2381C24.0457 37.1727 23.6745 38.069 23.0136 38.7298C22.3528 39.3906 21.4565 39.7619 20.5219 39.7619C19.5873 39.7619 18.691 39.3906 18.0302 38.7298C17.3694 38.069 16.9981 37.1727 16.9981 36.2381V36.0795C16.9845 35.4963 16.7957 34.9308 16.4563 34.4563C16.117 33.9818 15.6427 33.6204 15.0952 33.419C14.5638 33.1845 13.9743 33.1146 13.4028 33.2182C12.8312 33.3218 12.3038 33.5943 11.8886 34.0005L11.7829 34.1062C11.4556 34.4338 11.067 34.6937 10.6392 34.8711C10.2114 35.0484 9.75285 35.1397 9.28976 35.1397C8.82668 35.1397 8.36814 35.0484 7.94035 34.8711C7.51257 34.6937 7.12393 34.4338 6.79667 34.1062C6.46904 33.7789 6.20912 33.3903 6.03179 32.9625C5.85446 32.5347 5.76318 32.0762 5.76318 31.6131C5.76318 31.15 5.85446 30.6915 6.03179 30.2637C6.20912 29.8359 6.46904 29.4473 6.79667 29.12L6.90238 29.0143C7.30856 28.599 7.58104 28.0716 7.68467 27.5001C7.78831 26.9285 7.71835 26.339 7.48381 25.8076C7.26047 25.2865 6.88962 24.8421 6.41692 24.529C5.94421 24.216 5.39029 24.048 4.82333 24.0457H4.52381C3.58924 24.0457 2.69294 23.6745 2.0321 23.0136C1.37126 22.3528 1 21.4565 1 20.5219C1 19.5873 1.37126 18.691 2.0321 18.0302C2.69294 17.3694 3.58924 16.9981 4.52381 16.9981H4.68238C5.26556 16.9845 5.83115 16.7957 6.30562 16.4563C6.78009 16.117 7.1415 15.6427 7.34286 15.0952C7.57739 14.5638 7.64736 13.9743 7.54372 13.4028C7.44009 12.8312 7.16761 12.3038 6.76143 11.8886L6.65571 11.7829C6.32808 11.4556 6.06817 11.067 5.89084 10.6392C5.7135 10.2114 5.62223 9.75285 5.62223 9.28976C5.62223 8.82668 5.7135 8.36814 5.89084 7.94035C6.06817 7.51257 6.32808 7.12393 6.65571 6.79667C6.98298 6.46904 7.37162 6.20912 7.7994 6.03179C8.22718 5.85446 8.68573 5.76318 9.14881 5.76318C9.61189 5.76318 10.0704 5.85446 10.4982 6.03179C10.926 6.20912 11.3146 6.46904 11.6419 6.79667L11.7476 6.90238C12.1629 7.30856 12.6903 7.58104 13.2618 7.68467C13.8334 7.78831 14.4229 7.71835 14.9543 7.48381H15.0952C15.6164 7.26047 16.0608 6.88962 16.3738 6.41692C16.6869 5.94421 16.8549 5.39029 16.8571 4.82333V4.52381C16.8571 3.58924 17.2284 2.69294 17.8892 2.0321C18.5501 1.37126 19.4464 1 20.381 1C21.3155 1 22.2118 1.37126 22.8727 2.0321C23.5335 2.69294 23.9048 3.58924 23.9048 4.52381V4.68238C23.907 5.24934 24.075 5.80326 24.3881 6.27596C24.7011 6.74867 25.1456 7.11951 25.6667 7.34286C26.1981 7.57739 26.7876 7.64736 27.3591 7.54372C27.9307 7.44009 28.4581 7.16761 28.8733 6.76143L28.979 6.65571C29.3063 6.32808 29.695 6.06817 30.1227 5.89084C30.5505 5.7135 31.0091 5.62223 31.4721 5.62223C31.9352 5.62223 32.3938 5.7135 32.8216 5.89084C33.2493 6.06817 33.638 6.32808 33.9652 6.65571C34.2929 6.98298 34.5528 7.37162 34.7301 7.7994C34.9074 8.22718 34.9987 8.68573 34.9987 9.14881C34.9987 9.61189 34.9074 10.0704 34.7301 10.4982C34.5528 10.926 34.2929 11.3146 33.9652 11.6419L33.8595 11.7476C33.4533 12.1629 33.1809 12.6903 33.0772 13.2618C32.9736 13.8334 33.0436 14.4229 33.2781 14.9543V15.0952C33.5014 15.6164 33.8723 16.0608 34.345 16.3738C34.8177 16.6869 35.3716 16.8549 35.9386 16.8571H36.2381C37.1727 16.8571 38.069 17.2284 38.7298 17.8892C39.3906 18.5501 39.7619 19.4464 39.7619 20.381C39.7619 21.3155 39.3906 22.2118 38.7298 22.8727C38.069 23.5335 37.1727 23.9048 36.2381 23.9048H36.0795C35.5126 23.907 34.9586 24.075 34.4859 24.3881C34.0132 24.7011 33.6424 25.1456 33.419 25.6667V25.6667Z" stroke="#00BC80" stroke-width="2" stroke-linecap="round" stroke-linejoin="round"/>
</svg>
