<svg width="96" height="44" viewBox="0 0 96 44" fill="none" xmlns="http://www.w3.org/2000/svg">
<path fill-rule="evenodd" clip-rule="evenodd" d="M86.4 31.7709C85.3 30.3949 83.58 29.7069 81.241 29.7069H80.66C79.5649 29.6963 78.4777 29.8934 77.456 30.2879C76.4944 30.6625 75.5975 31.1855 74.798 31.8379C74.0182 32.4787 73.3545 33.249 72.836 34.1149C72.3197 34.9605 71.9618 35.8931 71.78 36.8669C71.6099 37.7425 71.6201 38.6435 71.81 39.5149C71.9847 40.3337 72.3518 41.0992 72.881 41.7479C73.4452 42.4227 74.1615 42.954 74.971 43.2979C75.948 43.7079 77.002 43.9069 78.062 43.8799H78.644C79.7392 43.8899 80.8263 43.6924 81.848 43.2979C82.8096 42.924 83.7063 42.401 84.505 41.7479C85.273 41.1156 85.93 40.3596 86.449 39.5109C86.9574 38.701 87.3091 37.8027 87.486 36.8629C87.862 34.8459 87.501 33.1489 86.401 31.7709H86.4ZM74.296 18.4879C74.163 16.5357 73.5267 14.6512 72.449 13.0179C71.387 11.4359 69.828 10.1869 67.772 9.26894C65.715 8.35194 62.746 7.89294 59.437 7.89294C55.947 7.89294 52.89 8.37394 50.263 9.33694C47.636 10.2999 45.404 11.5959 43.568 13.2249C41.7505 14.8275 40.2602 16.7664 39.179 18.9349C38.0814 21.1399 37.3017 23.4893 36.863 25.9129C36.455 28.0779 36.3149 30.2848 36.446 32.4839C36.5459 34.5166 37.2081 36.4816 38.359 38.1599C39.501 39.8109 41.226 41.2609 43.543 42.2769C45.859 43.2929 49.009 43.7909 52.998 43.7909C54.189 43.7909 55.481 43.7329 56.874 43.6179C58.3295 43.4969 59.778 43.303 61.214 43.0369C62.7347 42.7556 64.2381 42.388 65.717 41.9359C66.771 41.6159 67.8062 41.2373 68.818 40.8019L67.008 32.2219C60.805 33.3299 55.477 33.7189 53.139 31.8639C52.657 31.4759 52.17 30.5959 52.023 29.9079C51.875 29.2199 51.897 28.3579 52.091 27.2939H73.585L74.11 23.7789C74.368 22.0279 74.43 20.2529 74.296 18.4879ZM60.569 22.7519H53.07C53.369 21.1259 53.922 19.7569 54.73 18.6419C55.537 17.5289 56.663 16.9719 58.108 16.9719C59.492 16.9719 60.328 17.4989 60.616 18.5519C60.904 19.6049 60.888 21.0059 60.568 22.7539V22.7519H60.569Z" fill="#ED0E0E"/>
<path fill-rule="evenodd" clip-rule="evenodd" d="M36.115 39.348C34.7694 37.3856 33.9924 35.0893 33.87 32.713C33.73 30.351 33.88 27.98 34.316 25.653C34.796 23.0363 35.6416 20.5002 36.828 18.119C37.4872 16.804 38.2825 15.5619 39.201 14.413C40.9702 12.1096 43.196 10.1963 45.739 8.793H38.788L28.028 8.812L25.392 23.002C18.949 24.46 19.352 21.374 19.598 20.044L21.69 8.786H1.787L0 18.414H3.35L2.754 21.649C2.324 23.989 2.334 25.928 2.785 27.464C3.236 29.001 3.985 30.228 5.032 31.147C6.1269 32.0883 7.43403 32.7496 8.841 33.074C10.401 33.486 12.011 33.671 13.624 33.624C19.404 33.362 22.421 31.88 23.909 31.083L23.113 35.481C22.658 37.958 23.145 39.965 24.574 41.501C26.003 43.037 28.226 43.681 31.24 43.681C32.6644 43.694 34.0882 43.6219 35.504 43.465C36.297 43.374 37.912 43.125 39.697 42.773C39.382 42.5578 39.076 42.3296 38.78 42.089C37.7494 41.3254 36.8494 40.3997 36.115 39.348ZM77.56 0L76.182 27.379H87.165L95.939 0H77.56Z" fill="#ED0E0E"/>
</svg>
