<svg width="245" height="50" viewBox="0 0 245 50" fill="none" xmlns="http://www.w3.org/2000/svg">
<path d="M0 13.4013H13.0286L16.0103 25.9682H16.1724L19.0244 13.4013H32.0206V36.3716H24.1451V18.3276H23.9507L19.4214 36.3716H12.105L7.70537 18.3195H7.4785V36.3635H0V13.4013ZM76.8268 22.4193H76.9565L82.3689 13.4013H92.3753L84.6294 24.1613L93.0964 36.3635H82.5957L76.9565 26.6163H76.8268V36.3635H68.0358V13.3932H76.8268V22.4193ZM112.923 19.705C111.448 19.1459 109.277 18.5221 106.101 18.5221C104.359 18.5221 102.325 18.5545 102.325 20.0615C102.325 21.1472 103.702 21.4065 105.177 21.6658C109.244 22.4517 114.43 23.2782 114.43 29.0471C114.43 31.6398 113.247 36.7605 103.208 36.7605C100.915 36.7605 97.3664 36.5985 93.7284 35.6748V29.7034C97.0423 31.0159 99.7647 31.2428 101.636 31.2428C103.208 31.2428 105.574 31.0483 105.574 29.6385C105.574 28.2611 103.54 28.0991 101.831 27.7345C98.5169 27.0458 93.461 26.0897 93.461 20.4504C93.461 17.2338 95.5596 13.0043 105.307 13.0043C107.705 13.0043 110.16 13.2069 112.923 13.7903V19.705ZM60.6383 28.6257L66.156 40.1959L66.1317 40.2284H57.7457L54.2455 31.5183L49.5461 33.6978L33.9328 40.909L49.5461 3.83243L57.1786 20.6287L66.1317 17.5498L49.5461 25.5468L41.1196 29.598L65.5726 20.888L49.5542 28.3989L41.1277 32.3771L49.5542 29.3306L65.6536 23.5861L49.5542 31.0564L41.1601 34.9294L49.5542 31.9234L65.6536 26.1383L60.6383 28.6257ZM51.1261 23.0675L49.6595 19.308L49.5461 19.6078L48.0066 24.3801L49.5461 23.74L51.1261 23.0675ZM30.1571 11.87C34.3541 5.63116 41.468 1.53135 49.5461 1.53135C57.6242 1.53135 64.7381 5.63116 68.9351 11.87H70.7582C66.3829 4.748 58.5154 0 49.5461 0C40.5768 0 32.7174 4.748 28.334 11.8619H30.1571V11.87ZM68.9351 37.8949C64.7462 44.1337 57.6242 48.2335 49.5461 48.2335C41.468 48.2335 34.3541 44.1337 30.1571 37.8949H28.334C32.7093 45.0169 40.5687 49.7649 49.5461 49.7649C58.5154 49.7649 66.3748 45.0169 70.7582 37.8949H68.9351Z" fill="white"/>
<path d="M0 13.4013H13.0286L16.0103 25.9682H16.1724L19.0244 13.4013H32.0206V36.3716H24.1451V18.3276H23.9507L19.4214 36.3716H12.105L7.70537 18.3195H7.4785V36.3635H0V13.4013ZM76.8268 22.4193H76.9565L82.3689 13.4013H92.3753L84.6294 24.1613L93.0964 36.3635H82.5957L76.9565 26.6163H76.8268V36.3635H68.0358V13.3932H76.8268V22.4193ZM112.923 19.705C111.448 19.1459 109.277 18.5221 106.101 18.5221C104.359 18.5221 102.325 18.5545 102.325 20.0615C102.325 21.1472 103.702 21.4065 105.177 21.6658C109.244 22.4517 114.43 23.2782 114.43 29.0471C114.43 31.6398 113.247 36.7605 103.208 36.7605C100.915 36.7605 97.3664 36.5985 93.7284 35.6748V29.7034C97.0423 31.0159 99.7647 31.2428 101.636 31.2428C103.208 31.2428 105.574 31.0483 105.574 29.6385C105.574 28.2611 103.54 28.0991 101.831 27.7345C98.5169 27.0458 93.461 26.0897 93.461 20.4504C93.461 17.2338 95.5596 13.0043 105.307 13.0043C107.705 13.0043 110.16 13.2069 112.923 13.7903V19.705ZM60.6383 28.6257L66.156 40.1959L66.1317 40.2284H57.7457L54.2455 31.5183L49.5461 33.6978L33.9328 40.909L49.5461 3.83243L57.1786 20.6287L66.1317 17.5498L49.5461 25.5468L41.1196 29.598L65.5726 20.888L49.5542 28.3989L41.1277 32.3771L49.5542 29.3306L65.6536 23.5861L49.5542 31.0564L41.1601 34.9294L49.5542 31.9234L65.6536 26.1383L60.6383 28.6257ZM51.1261 23.0675L49.6595 19.308L49.5461 19.6078L48.0066 24.3801L49.5461 23.74L51.1261 23.0675ZM30.1571 11.87C34.3541 5.63116 41.468 1.53135 49.5461 1.53135C57.6242 1.53135 64.7381 5.63116 68.9351 11.87H70.7582C66.3829 4.748 58.5154 0 49.5461 0C40.5768 0 32.7174 4.748 28.334 11.8619H30.1571V11.87ZM68.9351 37.8949C64.7462 44.1337 57.6242 48.2335 49.5461 48.2335C41.468 48.2335 34.3541 44.1337 30.1571 37.8949H28.334C32.7093 45.0169 40.5687 49.7649 49.5461 49.7649C58.5154 49.7649 66.3748 45.0169 70.7582 37.8949H68.9351Z" fill="url(#paint0_linear)"/>
<path d="M121.721 13.4014H124.541L125.189 16.1238H125.222L125.837 13.4014H128.649V18.3762H126.939V14.4628H126.899L125.918 18.3762H124.33L123.374 14.4628H123.326V18.3762H121.705V13.4014H121.721Z" fill="white"/>
<path d="M121.721 13.4014H124.541L125.189 16.1238H125.222L125.837 13.4014H128.649V18.3762H126.939V14.4628H126.899L125.918 18.3762H124.33L123.374 14.4628H123.326V18.3762H121.705V13.4014H121.721Z" fill="url(#paint1_linear)"/>
<path d="M133.681 13.4014V14.5762H131.242V15.2973H133.575V16.4317H131.242V17.2095H133.729V18.3843H129.338V13.4095H133.681V13.4014Z" fill="white"/>
<path d="M133.681 13.4014V14.5762H131.242V15.2973H133.575V16.4317H131.242V17.2095H133.729V18.3843H129.338V13.4095H133.681V13.4014Z" fill="url(#paint2_linear)"/>
<path d="M137.408 18.3762V16.1238H137.368L136.249 18.3762H133.973L135.747 15.7349L134.183 13.4014H136.241L137.359 15.4999H137.4V13.4014H139.231V15.4999H139.272L140.39 13.4014H142.448L140.884 15.7349L142.658 18.3762H140.382L139.264 16.1238H139.223V18.3762H137.408Z" fill="white"/>
<path d="M137.408 18.3762V16.1238H137.368L136.249 18.3762H133.973L135.747 15.7349L134.183 13.4014H136.241L137.359 15.4999H137.4V13.4014H139.231V15.4999H139.272L140.39 13.4014H142.448L140.884 15.7349L142.658 18.3762H140.382L139.264 16.1238H139.223V18.3762H137.408Z" fill="url(#paint3_linear)"/>
<path d="M148.395 13.4014V17.0474H148.921V19.4782H147.017V18.3762H144.805V19.4782H142.901V17.0474H143.282C143.955 16.3749 143.963 15.6052 143.963 14.9894V13.4014H148.395ZM145.64 14.6815V15.2892C145.64 15.9536 145.559 16.5046 145.146 17.0555H146.483V14.6896H145.64V14.6815Z" fill="white"/>
<path d="M148.395 13.4014V17.0474H148.921V19.4782H147.017V18.3762H144.805V19.4782H142.901V17.0474H143.282C143.955 16.3749 143.963 15.6052 143.963 14.9894V13.4014H148.395ZM145.64 14.6815V15.2892C145.64 15.9536 145.559 16.5046 145.146 17.0555H146.483V14.6896H145.64V14.6815Z" fill="url(#paint4_linear)"/>
<path d="M150.963 13.4014L151.66 15.5566H151.692L152.373 13.4014H154.253L152.665 17.1609C152.438 17.6956 152.049 18.4573 150.825 18.4573C150.485 18.4573 149.958 18.3924 149.537 18.2871V17.0312C149.845 17.1285 150.031 17.1447 150.177 17.1447C150.299 17.1447 150.518 17.1285 150.518 16.9583C150.518 16.9178 150.518 16.8287 150.404 16.6099L148.8 13.4014H150.963Z" fill="white"/>
<path d="M150.963 13.4014L151.66 15.5566H151.692L152.373 13.4014H154.253L152.665 17.1609C152.438 17.6956 152.049 18.4573 150.825 18.4573C150.485 18.4573 149.958 18.3924 149.537 18.2871V17.0312C149.845 17.1285 150.031 17.1447 150.177 17.1447C150.299 17.1447 150.518 17.1285 150.518 16.9583C150.518 16.9178 150.518 16.8287 150.404 16.6099L148.8 13.4014H150.963Z" fill="url(#paint5_linear)"/>
<path d="M157.663 13.4014H159.568V18.3762H157.663V16.5451H156.391V18.3762H154.487V13.4014H156.391V15.1191H157.663V13.4014Z" fill="white"/>
<path d="M157.663 13.4014H159.568V18.3762H157.663V16.5451H156.391V18.3762H154.487V13.4014H156.391V15.1191H157.663V13.4014Z" fill="url(#paint6_linear)"/>
<path d="M164.13 13.4014L165.905 18.3762H163.903L163.563 17.2986H162.072L161.74 18.3762H159.836L161.578 13.4014H164.13ZM162.793 14.5843L162.283 16.14H163.344L162.826 14.5843H162.793Z" fill="white"/>
<path d="M164.13 13.4014L165.905 18.3762H163.903L163.563 17.2986H162.072L161.74 18.3762H159.836L161.578 13.4014H164.13ZM162.793 14.5843L162.283 16.14H163.344L162.826 14.5843H162.793Z" fill="url(#paint7_linear)"/>
<path d="M169.056 13.4014C170.554 13.4014 171.211 14.2764 171.211 15.1839C171.211 15.9779 170.644 16.9421 169.088 16.9421H168.043V18.3762H166.139V13.4014H169.056ZM167.994 15.7916H168.415C168.642 15.7916 169.291 15.7754 169.291 15.1758C169.291 14.8841 169.137 14.56 168.407 14.56H167.994V15.7916Z" fill="white"/>
<path d="M169.056 13.4014C170.554 13.4014 171.211 14.2764 171.211 15.1839C171.211 15.9779 170.644 16.9421 169.088 16.9421H168.043V18.3762H166.139V13.4014H169.056ZM167.994 15.7916H168.415C168.642 15.7916 169.291 15.7754 169.291 15.1758C169.291 14.8841 169.137 14.56 168.407 14.56H167.994V15.7916Z" fill="url(#paint8_linear)"/>
<path d="M177.028 15.8889C177.028 17.477 176.007 18.4655 174.257 18.4655C172.499 18.4655 171.486 17.477 171.486 15.8889C171.486 14.3009 172.499 13.3124 174.257 13.3124C176.007 13.3205 177.028 14.309 177.028 15.8889ZM173.488 15.8889C173.488 16.4075 173.536 17.2663 174.257 17.2663C174.97 17.2663 175.027 16.4075 175.027 15.8889C175.027 15.3704 174.978 14.5115 174.257 14.5115C173.536 14.5115 173.488 15.3704 173.488 15.8889Z" fill="white"/>
<path d="M177.028 15.8889C177.028 17.477 176.007 18.4655 174.257 18.4655C172.499 18.4655 171.486 17.477 171.486 15.8889C171.486 14.3009 172.499 13.3124 174.257 13.3124C176.007 13.3205 177.028 14.309 177.028 15.8889ZM173.488 15.8889C173.488 16.4075 173.536 17.2663 174.257 17.2663C174.97 17.2663 175.027 16.4075 175.027 15.8889C175.027 15.3704 174.978 14.5115 174.257 14.5115C173.536 14.5115 173.488 15.3704 173.488 15.8889Z" fill="url(#paint9_linear)"/>
<path d="M182.684 13.4014V17.0474H183.21V19.4782H181.306V18.3762H179.094V19.4782H177.19V17.0474H177.571C178.244 16.3749 178.252 15.6052 178.252 14.9894V13.4014H182.684ZM179.929 14.6815V15.2892C179.929 15.9536 179.848 16.5046 179.435 17.0555H180.772V14.6896H179.929V14.6815Z" fill="white"/>
<path d="M182.684 13.4014V17.0474H183.21V19.4782H181.306V18.3762H179.094V19.4782H177.19V17.0474H177.571C178.244 16.3749 178.252 15.6052 178.252 14.9894V13.4014H182.684ZM179.929 14.6815V15.2892C179.929 15.9536 179.848 16.5046 179.435 17.0555H180.772V14.6896H179.929V14.6815Z" fill="url(#paint10_linear)"/>
<path d="M186.849 13.4014H188.753V18.3762H186.849V16.5451H185.577V18.3762H183.673V13.4014H185.577V15.1191H186.849V13.4014Z" fill="white"/>
<path d="M186.849 13.4014H188.753V18.3762H186.849V16.5451H185.577V18.3762H183.673V13.4014H185.577V15.1191H186.849V13.4014Z" fill="url(#paint11_linear)"/>
<path d="M189.425 13.4014H191.329V14.8355H192.374C193.776 14.8355 194.392 15.6619 194.392 16.6099C194.392 17.5579 193.776 18.3762 192.374 18.3762H189.425V13.4014ZM191.669 17.2257C191.864 17.2257 192.479 17.2014 192.479 16.6099C192.479 16.302 192.317 15.9941 191.677 15.9941H191.288V17.2338H191.669V17.2257ZM196.693 13.4014V18.3762H194.789V13.4014H196.693Z" fill="white"/>
<path d="M189.425 13.4014H191.329V14.8355H192.374C193.776 14.8355 194.392 15.6619 194.392 16.6099C194.392 17.5579 193.776 18.3762 192.374 18.3762H189.425V13.4014ZM191.669 17.2257C191.864 17.2257 192.479 17.2014 192.479 16.6099C192.479 16.302 192.317 15.9941 191.677 15.9941H191.288V17.2338H191.669V17.2257ZM196.693 13.4014V18.3762H194.789V13.4014H196.693Z" fill="url(#paint12_linear)"/>
<path d="M199.278 13.4014V16.2453H199.31L200.566 13.4014H202.795V18.3763H200.89V15.589H200.858L199.602 18.3763H197.374V13.4014H199.278ZM201.717 11.9835C201.563 13.0287 200.38 13.0692 200.08 13.0692C199.78 13.0692 198.597 13.0287 198.444 11.9835L199.319 11.7971C199.335 12.2103 199.894 12.2346 200.08 12.2346C200.267 12.2346 200.826 12.2022 200.842 11.7971L201.717 11.9835Z" fill="white"/>
<path d="M199.278 13.4014V16.2453H199.31L200.566 13.4014H202.795V18.3763H200.89V15.589H200.858L199.602 18.3763H197.374V13.4014H199.278ZM201.717 11.9835C201.563 13.0287 200.38 13.0692 200.08 13.0692C199.78 13.0692 198.597 13.0287 198.444 11.9835L199.319 11.7971C199.335 12.2103 199.894 12.2346 200.08 12.2346C200.267 12.2346 200.826 12.2022 200.842 11.7971L201.717 11.9835Z" fill="url(#paint13_linear)"/>
<path d="M125.562 22.3951L127.328 27.37H125.327L124.987 26.2924H123.496L123.164 27.37H121.26L123.002 22.3951H125.562ZM124.225 23.5781L123.715 25.1337H124.776L124.258 23.5781H124.225Z" fill="white"/>
<path d="M125.562 22.3951L127.328 27.37H125.327L124.987 26.2924H123.496L123.164 27.37H121.26L123.002 22.3951H125.562ZM124.225 23.5781L123.715 25.1337H124.776L124.258 23.5781H124.225Z" fill="url(#paint14_linear)"/>
<path d="M130.569 22.3951C132.125 22.3951 132.408 23.2297 132.408 23.6915C132.408 24.2587 132.02 24.7205 131.396 24.834V24.8664C131.89 24.9393 132.522 25.2634 132.522 26.0493C132.522 27.3052 131.104 27.3781 130.464 27.3781H127.571V22.4032H130.569V22.3951ZM129.378 24.364H129.824C130.48 24.364 130.545 24.0237 130.545 23.8779C130.545 23.6753 130.399 23.3998 129.872 23.3998H129.378V24.364ZM129.378 26.3653H129.864C130.472 26.3653 130.577 26.0331 130.577 25.8549C130.577 25.3525 129.986 25.3525 129.824 25.3525H129.386V26.3653H129.378Z" fill="white"/>
<path d="M130.569 22.3951C132.125 22.3951 132.408 23.2297 132.408 23.6915C132.408 24.2587 132.02 24.7205 131.396 24.834V24.8664C131.89 24.9393 132.522 25.2634 132.522 26.0493C132.522 27.3052 131.104 27.3781 130.464 27.3781H127.571V22.4032H130.569V22.3951ZM129.378 24.364H129.824C130.48 24.364 130.545 24.0237 130.545 23.8779C130.545 23.6753 130.399 23.3998 129.872 23.3998H129.378V24.364ZM129.378 26.3653H129.864C130.472 26.3653 130.577 26.0331 130.577 25.8549C130.577 25.3525 129.986 25.3525 129.824 25.3525H129.386V26.3653H129.378Z" fill="url(#paint15_linear)"/>
<path d="M134.937 22.3951V25.2391H134.97L136.226 22.3951H138.454V27.37H136.55V24.5828H136.517L135.261 27.37H133.033V22.3951H134.937Z" fill="white"/>
<path d="M134.937 22.3951V25.2391H134.97L136.226 22.3951H138.454V27.37H136.55V24.5828H136.517L135.261 27.37H133.033V22.3951H134.937Z" fill="url(#paint16_linear)"/>
<path d="M143.006 22.3951L144.772 27.37H142.771L142.431 26.2924H140.94L140.599 27.3781H138.695L140.437 22.4032H143.006V22.3951ZM141.669 23.5781L141.158 25.1337H142.22L141.701 23.5781H141.669Z" fill="white"/>
<path d="M143.006 22.3951L144.772 27.37H142.771L142.431 26.2924H140.94L140.599 27.3781H138.695L140.437 22.4032H143.006V22.3951ZM141.669 23.5781L141.158 25.1337H142.22L141.701 23.5781H141.669Z" fill="url(#paint17_linear)"/>
<path d="M145.017 22.3951H146.921V25.9521H148.168V22.3951H150.072V25.9521H150.599V28.4395H148.695V27.37H145.017V22.3951Z" fill="white"/>
<path d="M145.017 22.3951H146.921V25.9521H148.168V22.3951H150.072V25.9521H150.599V28.4395H148.695V27.37H145.017V22.3951Z" fill="url(#paint18_linear)"/>
<path d="M152.956 22.3951V25.2391H152.988L154.244 22.3951H156.472V27.37H154.568V24.5828H154.536L153.28 27.37H151.052V22.3951H152.956Z" fill="white"/>
<path d="M152.956 22.3951V25.2391H152.988L154.244 22.3951H156.472V27.37H154.568V24.5828H154.536L153.28 27.37H151.052V22.3951H152.956Z" fill="url(#paint19_linear)"/>
<path d="M162.452 24.8825C162.452 26.4705 161.439 27.459 159.681 27.459C157.923 27.459 156.91 26.4705 156.91 24.8825C156.91 23.2944 157.931 22.3059 159.681 22.3059C161.439 22.314 162.452 23.3025 162.452 24.8825ZM158.911 24.8825C158.911 25.401 158.96 26.2599 159.681 26.2599C160.402 26.2599 160.451 25.401 160.451 24.8825C160.451 24.3639 160.402 23.5051 159.681 23.5051C158.96 23.5051 158.911 24.3639 158.911 24.8825Z" fill="white"/>
<path d="M162.452 24.8825C162.452 26.4705 161.439 27.459 159.681 27.459C157.923 27.459 156.91 26.4705 156.91 24.8825C156.91 23.2944 157.931 22.3059 159.681 22.3059C161.439 22.314 162.452 23.3025 162.452 24.8825ZM158.911 24.8825C158.911 25.401 158.96 26.2599 159.681 26.2599C160.402 26.2599 160.451 25.401 160.451 24.8825C160.451 24.3639 160.402 23.5051 159.681 23.5051C158.96 23.5051 158.911 24.3639 158.911 24.8825Z" fill="url(#paint20_linear)"/>
<path d="M166.074 22.3951H167.978V27.37H166.074V25.5389H164.802V27.37H162.897V22.3951H164.802V24.1128H166.074V22.3951Z" fill="white"/>
<path d="M166.074 22.3951H167.978V27.37H166.074V25.5389H164.802V27.37H162.897V22.3951H164.802V24.1128H166.074V22.3951Z" fill="url(#paint21_linear)"/>
<path d="M171.827 22.3951H173.731V27.37H171.827V25.5308H170.554V27.37H168.65V22.3951H170.554V24.1128H171.827V22.3951Z" fill="white"/>
<path d="M171.827 22.3951H173.731V27.37H171.827V25.5308H170.554V27.37H168.65V22.3951H170.554V24.1128H171.827V22.3951Z" fill="url(#paint22_linear)"/>
<path d="M179.718 24.8905C179.718 26.4786 178.705 27.4671 176.947 27.4671C175.189 27.4671 174.176 26.4786 174.176 24.8905C174.176 23.3025 175.189 22.314 176.947 22.314C178.705 22.314 179.718 23.3025 179.718 24.8905ZM176.177 24.8905C176.177 25.4091 176.226 26.2679 176.947 26.2679C177.668 26.2679 177.717 25.4091 177.717 24.8905C177.717 24.372 177.668 23.5131 176.947 23.5131C176.234 23.505 176.177 24.3639 176.177 24.8905Z" fill="white"/>
<path d="M179.718 24.8905C179.718 26.4786 178.705 27.4671 176.947 27.4671C175.189 27.4671 174.176 26.4786 174.176 24.8905C174.176 23.3025 175.189 22.314 176.947 22.314C178.705 22.314 179.718 23.3025 179.718 24.8905ZM176.177 24.8905C176.177 25.4091 176.226 26.2679 176.947 26.2679C177.668 26.2679 177.717 25.4091 177.717 24.8905C177.717 24.372 177.668 23.5131 176.947 23.5131C176.234 23.505 176.177 24.3639 176.177 24.8905Z" fill="url(#paint23_linear)"/>
<path d="M182.466 26.0737H180.262V24.834H182.466V26.0737Z" fill="white"/>
<path d="M182.466 26.0737H180.262V24.834H182.466V26.0737Z" fill="url(#paint24_linear)"/>
<path d="M185.033 24.3559H185.066L186.241 22.4032H188.404L186.727 24.7367L188.558 27.3781H186.281L185.058 25.2633H185.025V27.3781H183.121V22.4032H185.025V24.3559H185.033Z" fill="white"/>
<path d="M185.033 24.3559H185.066L186.241 22.4032H188.404L186.727 24.7367L188.558 27.3781H186.281L185.058 25.2633H185.025V27.3781H183.121V22.4032H185.025V24.3559H185.033Z" fill="url(#paint25_linear)"/>
<path d="M193.841 24.8905C193.841 26.4786 192.828 27.4671 191.07 27.4671C189.312 27.4671 188.299 26.4786 188.299 24.8905C188.299 23.3025 189.312 22.314 191.07 22.314C192.828 22.314 193.841 23.3025 193.841 24.8905ZM190.3 24.8905C190.3 25.4091 190.349 26.2679 191.07 26.2679C191.791 26.2679 191.84 25.4091 191.84 24.8905C191.84 24.372 191.791 23.5131 191.07 23.5131C190.349 23.505 190.3 24.3639 190.3 24.8905Z" fill="white"/>
<path d="M193.841 24.8905C193.841 26.4786 192.828 27.4671 191.07 27.4671C189.312 27.4671 188.299 26.4786 188.299 24.8905C188.299 23.3025 189.312 22.314 191.07 22.314C192.828 22.314 193.841 23.3025 193.841 24.8905ZM190.3 24.8905C190.3 25.4091 190.349 26.2679 191.07 26.2679C191.791 26.2679 191.84 25.4091 191.84 24.8905C191.84 24.372 191.791 23.5131 191.07 23.5131C190.349 23.505 190.3 24.3639 190.3 24.8905Z" fill="url(#paint26_linear)"/>
<path d="M198.468 27.2645C197.893 27.4185 197.439 27.4671 197.074 27.4671C195.146 27.4671 194.101 26.3976 194.101 24.8905C194.101 23.6103 194.903 22.314 197.123 22.314C197.69 22.314 198.111 22.4031 198.338 22.4517L198.452 22.476V23.7886C198.176 23.6833 197.836 23.5941 197.447 23.5941C196.637 23.5941 196.102 24.1289 196.102 24.8419C196.102 25.3037 196.288 26.1302 197.479 26.1302C197.666 26.1302 197.949 26.0978 198.46 25.9357V27.2645H198.468Z" fill="white"/>
<path d="M198.468 27.2645C197.893 27.4185 197.439 27.4671 197.074 27.4671C195.146 27.4671 194.101 26.3976 194.101 24.8905C194.101 23.6103 194.903 22.314 197.123 22.314C197.69 22.314 198.111 22.4031 198.338 22.4517L198.452 22.476V23.7886C198.176 23.6833 197.836 23.5941 197.447 23.5941C196.637 23.5941 196.102 24.1289 196.102 24.8419C196.102 25.3037 196.288 26.1302 197.479 26.1302C197.666 26.1302 197.949 26.0978 198.46 25.9357V27.2645H198.468Z" fill="url(#paint27_linear)"/>
<path d="M198.978 22.3951H201.797L202.446 25.1175H202.478L203.094 22.3951H205.905V27.37H204.196V23.4566H204.155L203.175 27.37H201.587L200.639 23.4566H200.59V27.37H198.97L198.978 22.3951Z" fill="white"/>
<path d="M198.978 22.3951H201.797L202.446 25.1175H202.478L203.094 22.3951H205.905V27.37H204.196V23.4566H204.155L203.175 27.37H201.587L200.639 23.4566H200.59V27.37H198.97L198.978 22.3951Z" fill="url(#paint28_linear)"/>
<path d="M208.507 22.4032V25.2471H208.539L209.795 22.4032H212.023V27.3781H210.119V24.5908H210.087L208.831 27.3781H206.603V22.4032H208.507Z" fill="white"/>
<path d="M208.507 22.4032V25.2471H208.539L209.795 22.4032H212.023V27.3781H210.119V24.5908H210.087L208.831 27.3781H206.603V22.4032H208.507Z" fill="url(#paint29_linear)"/>
<path d="M215.661 22.4032H217.565V27.3781H215.661V25.6604C215.58 25.6766 214.996 25.8143 214.413 25.8143C212.59 25.8143 212.533 24.6719 212.533 24.2344V22.3951H214.437V23.9832C214.437 24.3802 214.818 24.4126 214.972 24.4126C215.102 24.4126 215.345 24.3964 215.661 24.283V22.4032Z" fill="white"/>
<path d="M215.661 22.4032H217.565V27.3781H215.661V25.6604C215.58 25.6766 214.996 25.8143 214.413 25.8143C212.59 25.8143 212.533 24.6719 212.533 24.2344V22.3951H214.437V23.9832C214.437 24.3802 214.818 24.4126 214.972 24.4126C215.102 24.4126 215.345 24.3964 215.661 24.283V22.4032Z" fill="url(#paint30_linear)"/>
<path d="M222.588 22.4032V23.578H220.149V24.2992H222.483V25.4335H220.149V26.2113H222.637V27.3862H218.245V22.4113H222.588V22.4032Z" fill="white"/>
<path d="M222.588 22.4032V23.578H220.149V24.2992H222.483V25.4335H220.149V26.2113H222.637V27.3862H218.245V22.4113H222.588V22.4032Z" fill="url(#paint31_linear)"/>
<path d="M227.255 27.2645C226.68 27.4185 226.226 27.4671 225.861 27.4671C223.933 27.4671 222.888 26.3976 222.888 24.8905C222.888 23.6103 223.69 22.314 225.91 22.314C226.477 22.314 226.898 22.4031 227.125 22.4517L227.239 22.476V23.7886C226.963 23.6833 226.623 23.5941 226.234 23.5941C225.424 23.5941 224.889 24.1289 224.889 24.8419C224.889 25.3037 225.075 26.1302 226.266 26.1302C226.453 26.1302 226.736 26.0978 227.247 25.9357V27.2645H227.255Z" fill="white"/>
<path d="M227.255 27.2645C226.68 27.4185 226.226 27.4671 225.861 27.4671C223.933 27.4671 222.888 26.3976 222.888 24.8905C222.888 23.6103 223.69 22.314 225.91 22.314C226.477 22.314 226.898 22.4031 227.125 22.4517L227.239 22.476V23.7886C226.963 23.6833 226.623 23.5941 226.234 23.5941C225.424 23.5941 224.889 24.1289 224.889 24.8419C224.889 25.3037 225.075 26.1302 226.266 26.1302C226.453 26.1302 226.736 26.0978 227.247 25.9357V27.2645H227.255Z" fill="url(#paint32_linear)"/>
<path d="M229.678 24.3559H229.71L230.885 22.4032H233.056L231.379 24.7367L233.21 27.3781H230.933L229.71 25.2633H229.678V27.3781H227.773V22.4032H229.678V24.3559Z" fill="white"/>
<path d="M229.678 24.3559H229.71L230.885 22.4032H233.056L231.379 24.7367L233.21 27.3781H230.933L229.71 25.2633H229.678V27.3781H227.773V22.4032H229.678V24.3559Z" fill="url(#paint33_linear)"/>
<path d="M235.389 22.4032V25.2471H235.422L236.678 22.4032H238.906V27.3781H237.002V24.5908H236.969L235.714 27.3781H233.485V22.4032H235.389Z" fill="white"/>
<path d="M235.389 22.4032V25.2471H235.422L236.678 22.4032H238.906V27.3781H237.002V24.5908H236.969L235.714 27.3781H233.485V22.4032H235.389Z" fill="url(#paint34_linear)"/>
<path d="M241.483 22.4033V25.2472H241.516L242.771 22.4033H245V27.3781H243.096V24.5909H243.063L241.807 27.3781H239.579V22.4033H241.483ZM243.922 20.9772C243.768 22.0225 242.585 22.063 242.285 22.063C241.986 22.063 240.811 22.0225 240.649 20.9772L241.524 20.7909C241.54 21.2041 242.099 21.2365 242.285 21.2365C242.472 21.2365 243.031 21.2041 243.047 20.7909L243.922 20.9772Z" fill="white"/>
<path d="M241.483 22.4033V25.2472H241.516L242.771 22.4033H245V27.3781H243.096V24.5909H243.063L241.807 27.3781H239.579V22.4033H241.483ZM243.922 20.9772C243.768 22.0225 242.585 22.063 242.285 22.063C241.986 22.063 240.811 22.0225 240.649 20.9772L241.524 20.7909C241.54 21.2041 242.099 21.2365 242.285 21.2365C242.472 21.2365 243.031 21.2041 243.047 20.7909L243.922 20.9772Z" fill="url(#paint35_linear)"/>
<path d="M125.87 36.2583C125.295 36.4122 124.841 36.4609 124.477 36.4609C122.548 36.4609 121.503 35.3832 121.503 33.8843C121.503 32.6041 122.305 31.3077 124.525 31.3077C125.092 31.3077 125.514 31.405 125.74 31.4455L125.854 31.4698V32.7824C125.578 32.677 125.238 32.5879 124.849 32.5879C124.039 32.5879 123.504 33.1227 123.504 33.8357C123.504 34.2975 123.691 35.124 124.882 35.124C125.068 35.124 125.352 35.0916 125.862 34.9295V36.2583H125.87Z" fill="white"/>
<path d="M125.87 36.2583C125.295 36.4122 124.841 36.4609 124.477 36.4609C122.548 36.4609 121.503 35.3832 121.503 33.8843C121.503 32.6041 122.305 31.3077 124.525 31.3077C125.092 31.3077 125.514 31.405 125.74 31.4455L125.854 31.4698V32.7824C125.578 32.677 125.238 32.5879 124.849 32.5879C124.039 32.5879 123.504 33.1227 123.504 33.8357C123.504 34.2975 123.691 35.124 124.882 35.124C125.068 35.124 125.352 35.0916 125.862 34.9295V36.2583H125.87Z" fill="url(#paint36_linear)"/>
<path d="M130.318 31.3887L132.092 36.3635H130.091L129.751 35.2859H128.26L127.928 36.3635H126.023L127.765 31.3887H130.318ZM128.981 32.5716L128.47 34.1273H129.532L129.013 32.5716H128.981Z" fill="white"/>
<path d="M130.318 31.3887L132.092 36.3635H130.091L129.751 35.2859H128.26L127.928 36.3635H126.023L127.765 31.3887H130.318ZM128.981 32.5716L128.47 34.1273H129.532L129.013 32.5716H128.981Z" fill="url(#paint37_linear)"/>
<path d="M135.82 32.7418H134.897V33.5925C134.897 35.1968 134.864 36.4527 133.155 36.4527C132.839 36.4527 132.482 36.4041 132.19 36.3311V35.051C132.296 35.0753 132.49 35.0996 132.612 35.0996C133.333 35.0996 133.228 33.9085 133.228 32.9767V31.3887H137.724V36.3635H135.82V32.7418Z" fill="white"/>
<path d="M135.82 32.7418H134.897V33.5925C134.897 35.1968 134.864 36.4527 133.155 36.4527C132.839 36.4527 132.482 36.4041 132.19 36.3311V35.051C132.296 35.0753 132.49 35.0996 132.612 35.0996C133.333 35.0996 133.228 33.9085 133.228 32.9767V31.3887H137.724V36.3635H135.82V32.7418Z" fill="url(#paint38_linear)"/>
<path d="M143.695 33.8843C143.695 35.4724 142.683 36.4609 140.924 36.4609C139.166 36.4609 138.153 35.4724 138.153 33.8843C138.153 32.2962 139.166 31.3077 140.924 31.3077C142.683 31.3077 143.695 32.2962 143.695 33.8843ZM140.155 33.8843C140.155 34.4029 140.203 35.2617 140.924 35.2617C141.645 35.2617 141.694 34.4029 141.694 33.8843C141.694 33.3657 141.645 32.5069 140.924 32.5069C140.203 32.4988 140.155 33.3657 140.155 33.8843Z" fill="white"/>
<path d="M143.695 33.8843C143.695 35.4724 142.683 36.4609 140.924 36.4609C139.166 36.4609 138.153 35.4724 138.153 33.8843C138.153 32.2962 139.166 31.3077 140.924 31.3077C142.683 31.3077 143.695 32.2962 143.695 33.8843ZM140.155 33.8843C140.155 34.4029 140.203 35.2617 140.924 35.2617C141.645 35.2617 141.694 34.4029 141.694 33.8843C141.694 33.3657 141.645 32.5069 140.924 32.5069C140.203 32.4988 140.155 33.3657 140.155 33.8843Z" fill="url(#paint39_linear)"/>
<path d="M147.317 31.3967H149.221V36.3716H147.317V34.5405H146.045V36.3716H144.141V31.3967H146.045V33.1144H147.317V31.3967Z" fill="white"/>
<path d="M147.317 31.3967H149.221V36.3716H147.317V34.5405H146.045V36.3716H144.141V31.3967H146.045V33.1144H147.317V31.3967Z" fill="url(#paint40_linear)"/>
<defs>
<linearGradient id="paint0_linear" x1="57.215" y1="0" x2="57.215" y2="49.7649" gradientUnits="userSpaceOnUse">
<stop stop-color="#182D55"/>
<stop offset="1" stop-color="#254773"/>
</linearGradient>
<linearGradient id="paint1_linear" x1="125.177" y1="13.4014" x2="125.177" y2="18.3762" gradientUnits="userSpaceOnUse">
<stop stop-color="#182D55"/>
<stop offset="1" stop-color="#254773"/>
</linearGradient>
<linearGradient id="paint2_linear" x1="131.534" y1="13.4014" x2="131.534" y2="18.3843" gradientUnits="userSpaceOnUse">
<stop stop-color="#182D55"/>
<stop offset="1" stop-color="#254773"/>
</linearGradient>
<linearGradient id="paint3_linear" x1="138.316" y1="13.4014" x2="138.316" y2="18.3762" gradientUnits="userSpaceOnUse">
<stop stop-color="#182D55"/>
<stop offset="1" stop-color="#254773"/>
</linearGradient>
<linearGradient id="paint4_linear" x1="145.911" y1="13.4014" x2="145.911" y2="19.4782" gradientUnits="userSpaceOnUse">
<stop stop-color="#182D55"/>
<stop offset="1" stop-color="#254773"/>
</linearGradient>
<linearGradient id="paint5_linear" x1="151.526" y1="13.4014" x2="151.526" y2="18.4573" gradientUnits="userSpaceOnUse">
<stop stop-color="#182D55"/>
<stop offset="1" stop-color="#254773"/>
</linearGradient>
<linearGradient id="paint6_linear" x1="157.027" y1="13.4014" x2="157.027" y2="18.3762" gradientUnits="userSpaceOnUse">
<stop stop-color="#182D55"/>
<stop offset="1" stop-color="#254773"/>
</linearGradient>
<linearGradient id="paint7_linear" x1="162.87" y1="13.4014" x2="162.87" y2="18.3762" gradientUnits="userSpaceOnUse">
<stop stop-color="#182D55"/>
<stop offset="1" stop-color="#254773"/>
</linearGradient>
<linearGradient id="paint8_linear" x1="168.675" y1="13.4014" x2="168.675" y2="18.3762" gradientUnits="userSpaceOnUse">
<stop stop-color="#182D55"/>
<stop offset="1" stop-color="#254773"/>
</linearGradient>
<linearGradient id="paint9_linear" x1="174.257" y1="13.3124" x2="174.257" y2="18.4655" gradientUnits="userSpaceOnUse">
<stop stop-color="#182D55"/>
<stop offset="1" stop-color="#254773"/>
</linearGradient>
<linearGradient id="paint10_linear" x1="180.2" y1="13.4014" x2="180.2" y2="19.4782" gradientUnits="userSpaceOnUse">
<stop stop-color="#182D55"/>
<stop offset="1" stop-color="#254773"/>
</linearGradient>
<linearGradient id="paint11_linear" x1="186.213" y1="13.4014" x2="186.213" y2="18.3762" gradientUnits="userSpaceOnUse">
<stop stop-color="#182D55"/>
<stop offset="1" stop-color="#254773"/>
</linearGradient>
<linearGradient id="paint12_linear" x1="193.059" y1="13.4014" x2="193.059" y2="18.3762" gradientUnits="userSpaceOnUse">
<stop stop-color="#182D55"/>
<stop offset="1" stop-color="#254773"/>
</linearGradient>
<linearGradient id="paint13_linear" x1="200.084" y1="11.7971" x2="200.084" y2="18.3763" gradientUnits="userSpaceOnUse">
<stop stop-color="#182D55"/>
<stop offset="1" stop-color="#254773"/>
</linearGradient>
<linearGradient id="paint14_linear" x1="124.294" y1="22.3951" x2="124.294" y2="27.37" gradientUnits="userSpaceOnUse">
<stop stop-color="#182D55"/>
<stop offset="1" stop-color="#254773"/>
</linearGradient>
<linearGradient id="paint15_linear" x1="130.047" y1="22.3951" x2="130.047" y2="27.3781" gradientUnits="userSpaceOnUse">
<stop stop-color="#182D55"/>
<stop offset="1" stop-color="#254773"/>
</linearGradient>
<linearGradient id="paint16_linear" x1="135.743" y1="22.3951" x2="135.743" y2="27.37" gradientUnits="userSpaceOnUse">
<stop stop-color="#182D55"/>
<stop offset="1" stop-color="#254773"/>
</linearGradient>
<linearGradient id="paint17_linear" x1="141.734" y1="22.3951" x2="141.734" y2="27.3781" gradientUnits="userSpaceOnUse">
<stop stop-color="#182D55"/>
<stop offset="1" stop-color="#254773"/>
</linearGradient>
<linearGradient id="paint18_linear" x1="147.808" y1="22.3951" x2="147.808" y2="28.4395" gradientUnits="userSpaceOnUse">
<stop stop-color="#182D55"/>
<stop offset="1" stop-color="#254773"/>
</linearGradient>
<linearGradient id="paint19_linear" x1="153.762" y1="22.3951" x2="153.762" y2="27.37" gradientUnits="userSpaceOnUse">
<stop stop-color="#182D55"/>
<stop offset="1" stop-color="#254773"/>
</linearGradient>
<linearGradient id="paint20_linear" x1="159.681" y1="22.3059" x2="159.681" y2="27.459" gradientUnits="userSpaceOnUse">
<stop stop-color="#182D55"/>
<stop offset="1" stop-color="#254773"/>
</linearGradient>
<linearGradient id="paint21_linear" x1="165.438" y1="22.3951" x2="165.438" y2="27.37" gradientUnits="userSpaceOnUse">
<stop stop-color="#182D55"/>
<stop offset="1" stop-color="#254773"/>
</linearGradient>
<linearGradient id="paint22_linear" x1="171.19" y1="22.3951" x2="171.19" y2="27.37" gradientUnits="userSpaceOnUse">
<stop stop-color="#182D55"/>
<stop offset="1" stop-color="#254773"/>
</linearGradient>
<linearGradient id="paint23_linear" x1="176.947" y1="22.314" x2="176.947" y2="27.4671" gradientUnits="userSpaceOnUse">
<stop stop-color="#182D55"/>
<stop offset="1" stop-color="#254773"/>
</linearGradient>
<linearGradient id="paint24_linear" x1="181.364" y1="24.834" x2="181.364" y2="26.0737" gradientUnits="userSpaceOnUse">
<stop stop-color="#182D55"/>
<stop offset="1" stop-color="#254773"/>
</linearGradient>
<linearGradient id="paint25_linear" x1="185.839" y1="22.4032" x2="185.839" y2="27.3781" gradientUnits="userSpaceOnUse">
<stop stop-color="#182D55"/>
<stop offset="1" stop-color="#254773"/>
</linearGradient>
<linearGradient id="paint26_linear" x1="191.07" y1="22.314" x2="191.07" y2="27.4671" gradientUnits="userSpaceOnUse">
<stop stop-color="#182D55"/>
<stop offset="1" stop-color="#254773"/>
</linearGradient>
<linearGradient id="paint27_linear" x1="196.284" y1="22.314" x2="196.284" y2="27.4671" gradientUnits="userSpaceOnUse">
<stop stop-color="#182D55"/>
<stop offset="1" stop-color="#254773"/>
</linearGradient>
<linearGradient id="paint28_linear" x1="202.438" y1="22.3951" x2="202.438" y2="27.37" gradientUnits="userSpaceOnUse">
<stop stop-color="#182D55"/>
<stop offset="1" stop-color="#254773"/>
</linearGradient>
<linearGradient id="paint29_linear" x1="209.313" y1="22.4032" x2="209.313" y2="27.3781" gradientUnits="userSpaceOnUse">
<stop stop-color="#182D55"/>
<stop offset="1" stop-color="#254773"/>
</linearGradient>
<linearGradient id="paint30_linear" x1="215.049" y1="22.3951" x2="215.049" y2="27.3781" gradientUnits="userSpaceOnUse">
<stop stop-color="#182D55"/>
<stop offset="1" stop-color="#254773"/>
</linearGradient>
<linearGradient id="paint31_linear" x1="220.441" y1="22.4032" x2="220.441" y2="27.3862" gradientUnits="userSpaceOnUse">
<stop stop-color="#182D55"/>
<stop offset="1" stop-color="#254773"/>
</linearGradient>
<linearGradient id="paint32_linear" x1="225.071" y1="22.314" x2="225.071" y2="27.4671" gradientUnits="userSpaceOnUse">
<stop stop-color="#182D55"/>
<stop offset="1" stop-color="#254773"/>
</linearGradient>
<linearGradient id="paint33_linear" x1="230.492" y1="22.4032" x2="230.492" y2="27.3781" gradientUnits="userSpaceOnUse">
<stop stop-color="#182D55"/>
<stop offset="1" stop-color="#254773"/>
</linearGradient>
<linearGradient id="paint34_linear" x1="236.196" y1="22.4032" x2="236.196" y2="27.3781" gradientUnits="userSpaceOnUse">
<stop stop-color="#182D55"/>
<stop offset="1" stop-color="#254773"/>
</linearGradient>
<linearGradient id="paint35_linear" x1="242.289" y1="20.7909" x2="242.289" y2="27.3781" gradientUnits="userSpaceOnUse">
<stop stop-color="#182D55"/>
<stop offset="1" stop-color="#254773"/>
</linearGradient>
<linearGradient id="paint36_linear" x1="123.687" y1="31.3077" x2="123.687" y2="36.4609" gradientUnits="userSpaceOnUse">
<stop stop-color="#182D55"/>
<stop offset="1" stop-color="#254773"/>
</linearGradient>
<linearGradient id="paint37_linear" x1="129.058" y1="31.3887" x2="129.058" y2="36.3635" gradientUnits="userSpaceOnUse">
<stop stop-color="#182D55"/>
<stop offset="1" stop-color="#254773"/>
</linearGradient>
<linearGradient id="paint38_linear" x1="134.957" y1="31.3887" x2="134.957" y2="36.4527" gradientUnits="userSpaceOnUse">
<stop stop-color="#182D55"/>
<stop offset="1" stop-color="#254773"/>
</linearGradient>
<linearGradient id="paint39_linear" x1="140.924" y1="31.3077" x2="140.924" y2="36.4609" gradientUnits="userSpaceOnUse">
<stop stop-color="#182D55"/>
<stop offset="1" stop-color="#254773"/>
</linearGradient>
<linearGradient id="paint40_linear" x1="146.681" y1="31.3967" x2="146.681" y2="36.3716" gradientUnits="userSpaceOnUse">
<stop stop-color="#182D55"/>
<stop offset="1" stop-color="#254773"/>
</linearGradient>
</defs>
</svg>
