<svg width="219" height="35" viewBox="0 0 219 35" fill="none" xmlns="http://www.w3.org/2000/svg">
<path d="M17.2463 35C26.7712 35 34.4927 27.2786 34.4927 17.7537C34.4927 8.22878 26.7712 0.507324 17.2463 0.507324C7.72145 0.507324 0 8.22878 0 17.7537C0 27.2786 7.72145 35 17.2463 35Z" fill="#16932B"/>
<path d="M17.2458 33.1185C25.7316 33.1185 32.6107 26.2394 32.6107 17.7536C32.6107 9.26778 25.7316 2.38867 17.2458 2.38867C8.75997 2.38867 1.88086 9.26778 1.88086 17.7536C1.88086 26.2394 8.75997 33.1185 17.2458 33.1185Z" fill="#FF6927"/>
<path fill-rule="evenodd" clip-rule="evenodd" d="M29.8412 12.9978C30.1548 12.9455 30.3638 12.7365 30.3116 12.5274C30.2593 12.3184 29.998 12.2139 29.6844 12.2661C29.3708 12.3184 29.1618 12.5274 29.2141 12.7365C29.2663 12.9455 29.5276 13.0501 29.8412 12.9978Z" fill="white"/>
<path fill-rule="evenodd" clip-rule="evenodd" d="M10.4006 23.0321C10.3483 23.607 10.2438 24.1818 9.66891 24.1296C9.66891 24.1296 9.30308 24.025 8.98951 24.025C8.31011 24.025 8.15332 24.3909 8.15332 24.7045C8.15332 25.5929 9.09403 25.8542 9.66891 25.8542C10.2438 25.8542 10.8709 25.6452 11.3413 25.2793C12.2297 24.6522 12.8046 23.2411 13.0659 22.614C12.8046 22.5095 12.491 22.4049 12.2297 22.3004C11.7594 22.7708 11.08 23.0321 10.4006 23.0321Z" fill="white"/>
<path fill-rule="evenodd" clip-rule="evenodd" d="M19.4419 20.7326C19.5464 21.0984 19.7032 21.8301 19.8077 22.1437C19.8077 22.1437 19.2851 22.3527 19.2329 22.405C19.0761 22.4572 19.0761 22.614 19.1283 22.7708C19.1806 22.9276 19.3374 22.9276 19.4942 22.8753C20.1736 22.5095 22.1073 21.6733 22.9434 22.5095C23.4138 22.9276 23.8319 24.3387 23.5183 25.2794C23.3615 25.8542 22.9434 26.1678 22.264 26.2201C21.8982 26.2723 21.5846 26.1678 21.3756 25.9588C20.8007 25.4361 20.8007 24.3909 20.8007 24.3909C20.8007 24.2864 20.7485 24.2341 20.6439 24.1819C20.5917 24.1296 20.4871 24.1296 20.3826 24.1819C20.3826 24.1819 18.9193 25.2271 17.7173 24.6522C15.9926 23.816 16.4107 21.5688 16.4107 21.5165C16.4107 21.3597 16.3585 21.2552 16.2017 21.2552C16.0449 21.2552 15.9404 21.3075 15.9404 21.4643C15.9404 21.4643 15.8359 22.0914 15.9404 22.7708C14.6861 22.614 13.5886 22.405 12.6479 22.0391C13.1705 21.4643 13.4318 20.7326 13.4318 19.8964C13.4318 19.7396 13.3273 19.6351 13.1705 19.6351C13.0137 19.6351 12.9092 19.7396 12.9092 19.8964C12.9092 21.412 11.6549 22.614 10.1916 22.614C9.09411 22.614 8.10114 21.9346 7.63078 20.8894C7.68305 20.7326 7.57852 20.7326 7.42174 20.7326C7.26495 20.7849 7.26495 20.9416 7.26495 21.0462C7.42174 21.412 7.63078 21.7256 7.89209 22.0391C7.31721 23.2934 6.27198 24.7045 4.49508 24.1819C3.92021 24.0251 3.55438 23.6593 3.44985 23.1889C3.39759 22.8231 3.44985 22.4572 3.71116 22.3005C3.92021 22.1437 4.23378 22.0914 4.54735 22.2482C5.43579 22.5618 5.95841 21.0984 6.48103 19.6874C6.74234 18.9034 7.10817 18.015 7.36948 17.8582C7.68304 17.6492 8.46697 17.6492 8.88506 18.224C8.93733 18.3808 8.98959 18.7467 8.98959 18.7467C8.98959 18.8512 9.14637 18.9557 9.25089 18.9034C9.40768 18.9034 9.45994 18.7467 9.45994 18.6421C9.19863 17.1265 9.61673 16.1858 9.98256 15.7155C9.98256 15.7155 7.26495 13.6773 7.68305 10.9597C7.68305 10.8029 7.78757 10.6984 7.83983 10.6984C7.89209 10.6984 7.99662 10.8551 7.99662 11.0642C8.1534 11.5868 8.41471 12.3707 9.14637 13.2069C9.82577 14.0431 10.4007 14.5135 10.9755 14.7225C11.0278 14.7225 12.3343 14.9838 14.7906 14.9838C16.2017 14.9838 18.0309 14.827 18.1354 14.7748C18.2399 15.4019 18.5535 16.4471 19.3897 17.3879C20.1736 18.2763 21.0098 18.6421 21.6369 18.9034C22.5254 19.2693 23.3093 19.4261 23.8319 19.5306C23.8319 19.5828 23.7796 19.5828 23.7796 19.6351C23.4661 20.419 22.9434 21.0984 22.2118 21.6733C21.5846 21.621 20.853 21.7778 20.2781 21.9869C20.2258 21.8301 20.1213 21.412 19.9123 20.6803C19.86 20.5236 19.7555 20.4713 19.5987 20.5236C19.4942 20.4713 19.4419 20.6281 19.4419 20.7326Z" fill="white"/>
<path fill-rule="evenodd" clip-rule="evenodd" d="M25.1913 7.56244C24.7209 7.51017 24.1983 8.81672 23.9893 9.28707C24.4074 9.33933 24.8254 9.44386 25.2435 9.6529C25.3481 9.49612 25.5048 7.56244 25.1913 7.56244Z" fill="white"/>
<path d="M24.9296 16.1336C24.9296 16.1336 24.7728 16.0814 24.5637 16.1336C24.7728 16.6563 25.2431 17.0221 25.8703 17.1789C26.9155 17.4402 28.1175 17.3879 29.3718 16.2382C29.999 15.6633 30.6261 14.6181 30.7306 13.6773C30.6261 13.8341 30.4693 13.8864 30.3125 13.9909C29.6331 14.2 28.7969 13.8864 28.5879 13.2593C28.4311 12.8934 28.5879 12.5798 28.8492 12.3185C28.6401 12.3708 28.4311 12.4231 28.1698 12.4753C27.4904 12.6321 26.9678 12.7366 26.7065 12.5276C26.4974 12.3185 26.4452 12.005 26.2884 11.6391C26.1316 11.1165 25.9748 10.5416 25.4522 10.2281C24.3547 9.54867 23.1004 9.75772 23.0482 9.75772C22.9436 9.75772 22.8914 9.75772 22.8391 9.6532C22.7868 9.60094 22.6301 8.18987 22.3687 7.77178C22.1074 7.24916 21.8984 7.1969 21.8461 7.1969C21.3235 7.1969 20.4873 8.50344 20.1738 10.3849C20.1738 10.4371 20.1215 10.4371 20.1215 10.4894C19.4944 11.1688 18.7627 13.5206 18.7627 14.3045C18.7627 14.3045 18.7627 14.3567 18.7627 14.409C18.815 15.1929 20.1215 18.5899 24.0411 18.6945C24.0934 18.6945 24.0934 18.6945 24.1456 18.6945C25.5567 18.5899 27.0723 17.9628 27.7517 17.597C27.2813 17.7538 26.4452 17.806 25.7135 17.6492C24.9296 17.4402 24.407 16.9698 24.0934 16.3427C23.9889 16.3949 23.9366 16.4995 23.8843 16.6563C23.8321 16.7608 23.6753 16.813 23.5708 16.7608C23.414 16.7085 23.414 16.5517 23.4662 16.4472C23.8843 15.6633 24.6683 15.5588 25.0341 15.611C25.1909 15.611 25.2431 15.7678 25.2431 15.8723C25.1909 16.0814 25.0864 16.1336 24.9296 16.1336ZM26.0271 12.1618C26.1838 12.1618 26.2884 12.3185 26.2884 12.5798C26.2884 12.7889 26.1316 12.9979 26.0271 12.9979C25.8703 12.9979 25.7658 12.8412 25.7658 12.5798C25.7135 12.3708 25.8703 12.1618 26.0271 12.1618ZM22.3165 9.86224C22.212 9.91451 22.0029 10.019 21.6893 10.019C21.428 10.0713 21.428 9.86224 21.6371 9.28737C21.8461 8.76475 22.0029 8.50344 22.0029 8.50344C22.212 8.29439 22.3687 9.86224 22.3165 9.86224ZM24.7728 13.8341C24.5115 13.8341 24.3024 13.5206 24.3024 13.1547C24.3024 12.7889 24.5115 12.4231 24.7728 12.4231C25.0341 12.4231 25.2431 12.7366 25.2431 13.1025C25.2431 13.4683 25.0341 13.8341 24.7728 13.8341Z" fill="white"/>
<path fill-rule="evenodd" clip-rule="evenodd" d="M23.6233 20.9415C23.4142 21.255 23.1529 21.5163 22.7871 21.8299C22.9439 21.8822 23.1007 21.9867 23.2575 22.0912C23.4665 22.3003 23.6756 22.6138 23.8323 22.9797C24.3027 22.8229 24.6685 22.6138 24.6685 22.6138C24.7208 22.5616 24.8253 22.5616 24.8776 22.6138C24.9298 22.6661 24.9821 22.7184 25.0344 22.8229C25.2434 24.2862 25.8705 24.7043 26.4454 24.4953C26.9158 24.3385 27.1771 24.0249 27.2816 23.6068C27.4907 22.6661 26.968 21.4641 26.4977 21.046C25.9228 20.4711 24.6163 20.6802 23.6233 20.9415Z" fill="white"/>
<path fill-rule="evenodd" clip-rule="evenodd" d="M24.1981 18.7989L23.8846 19.426L23.8323 19.4783C22.7348 19.3738 18.9197 18.5376 18.0313 14.7225C18.0313 14.7225 18.0312 14.6702 18.0835 14.6702L18.6584 14.4612C18.7107 14.4612 18.7107 14.4612 18.7107 14.5134C18.8674 15.4019 20.4353 18.5899 24.1459 18.7466C24.1981 18.7466 24.2504 18.7466 24.1981 18.7989Z" fill="#1F9E38"/>
<path fill-rule="evenodd" clip-rule="evenodd" d="M48.6388 10.0576C48.6388 9.4336 49.1589 8.87891 49.8176 8.87891H51.551C52.175 8.87891 52.7297 9.39894 52.7297 10.0576V25.5198C52.7297 26.1439 52.2097 26.6986 51.551 26.6986H49.8176C49.1935 26.6986 48.6388 26.1785 48.6388 25.5198V19.8689C47.7375 20.5622 46.4894 20.9089 44.8253 20.9089C42.2598 20.9089 39.3477 19.5222 39.3477 15.2233V10.0576C39.3477 9.4336 39.8677 8.87891 40.5264 8.87891H42.2598C42.8839 8.87891 43.4386 9.39894 43.4386 10.0576V14.0099C43.4386 16.3673 44.4093 17.0954 45.9347 17.0954C46.8707 17.0954 47.8068 16.7834 48.6388 16.1593V10.0576Z" fill="#FF6927"/>
<path fill-rule="evenodd" clip-rule="evenodd" d="M67.5666 25.4852C67.5666 26.1092 67.0466 26.6639 66.3879 26.6639H57.9287C57.3047 26.6639 56.75 26.1439 56.75 25.4852V10.0576C56.75 9.4336 57.27 8.87891 57.9287 8.87891H66.1452C66.7692 8.87891 67.3239 9.39894 67.3239 10.0576V11.5137C67.3239 12.1378 66.8039 12.6925 66.1452 12.6925H60.8409V15.8126H65.3825C66.0065 15.8126 66.5612 16.3327 66.5612 16.9914V18.4474C66.5612 19.0715 66.0412 19.6262 65.3825 19.6262H60.8409V22.8504H66.3879C67.0119 22.8504 67.5666 23.3704 67.5666 24.0291V25.4852Z" fill="#FF6927"/>
<path fill-rule="evenodd" clip-rule="evenodd" d="M76.8585 26.6639C76.2345 26.6639 75.6798 26.1439 75.6798 25.4852V12.6925H71.5196C70.8955 12.6925 70.3408 12.1724 70.3408 11.5137V10.0576C70.3408 9.4336 70.8608 8.87891 71.5196 8.87891H83.9309C84.555 8.87891 85.1096 9.39894 85.1096 10.0576V11.5137C85.1096 12.1378 84.5896 12.6925 83.9309 12.6925H79.7707V25.4852C79.7707 26.1092 79.2507 26.6639 78.5919 26.6639H76.8585Z" fill="#FF6927"/>
<path d="M88.1602 10.0576C88.1602 9.4336 88.6802 8.87891 89.3389 8.87891H91.0723C91.6964 8.87891 92.251 9.39894 92.251 10.0576V14.4606C92.8057 14.3912 93.3604 14.3565 93.8111 14.3565C98.0754 14.3565 100.294 16.61 100.294 20.3542C100.294 24.2024 97.59 26.7332 92.9444 26.7332C91.939 26.7332 90.7256 26.6986 89.3389 26.6986C88.7149 26.6986 88.1602 26.1439 88.1602 25.5198V10.0576ZM92.2164 22.8157C92.8404 22.885 93.2218 22.9197 93.4298 22.9197C95.1286 22.9197 95.9606 22.1223 95.9606 20.4582C95.9606 18.9328 94.9899 18.1701 93.4298 18.1701C93.1871 18.1701 92.7711 18.2048 92.2164 18.3088V22.8157ZM106.049 25.4852C106.049 26.1092 105.529 26.6639 104.87 26.6639H103.137C102.513 26.6639 101.958 26.1439 101.958 25.4852V10.0576C101.958 9.4336 102.478 8.87891 103.137 8.87891H104.87C105.494 8.87891 106.049 9.39894 106.049 10.0576V25.4852Z" fill="#FF6927"/>
<path d="M121.062 10.4735C122.206 11.5829 122.76 13.0044 122.76 14.7031C122.76 16.3672 122.136 17.7886 120.958 18.9327C119.779 20.1114 118.15 20.7008 116.173 20.7008C115.272 20.7008 114.613 20.6661 114.197 20.6314V25.5197C114.197 26.1438 113.677 26.6985 113.019 26.6985H111.285C110.661 26.6985 110.106 26.1784 110.106 25.5197V10.0922C110.106 9.46815 110.626 8.87878 111.285 8.87878C113.088 8.84412 114.509 8.84412 115.549 8.84412C118.08 8.84412 119.918 9.39881 121.062 10.4735ZM114.197 16.7486C114.821 16.8179 115.48 16.8872 116.069 16.8872C117.352 16.8872 118.462 16.2632 118.462 14.7031C118.462 13.3164 117.664 12.6577 116 12.6577C115.931 12.6577 115.341 12.6923 114.232 12.727V16.7486H114.197Z" fill="#FF6927"/>
<path fill-rule="evenodd" clip-rule="evenodd" d="M136.869 25.4852C136.869 26.1092 136.349 26.6639 135.691 26.6639H127.231C126.607 26.6639 126.053 26.1439 126.053 25.4852V10.0576C126.053 9.4336 126.573 8.87891 127.231 8.87891H135.448C136.072 8.87891 136.627 9.39894 136.627 10.0576V11.5137C136.627 12.1378 136.107 12.6925 135.448 12.6925H130.144V15.8126H134.685C135.309 15.8126 135.864 16.3327 135.864 16.9914V18.4474C135.864 19.0715 135.344 19.6262 134.685 19.6262H130.144V22.8504H135.725C136.349 22.8504 136.904 23.3704 136.904 24.0291V25.4852H136.869Z" fill="#FF6927"/>
<path fill-rule="evenodd" clip-rule="evenodd" d="M159.752 25.4852C159.752 26.1092 159.232 26.6639 158.574 26.6639H156.84C156.216 26.6639 155.661 26.1439 155.661 25.4852V12.6925H151.778L151.397 16.0553C150.322 24.5838 148.693 26.7679 145.087 26.8026C144.394 26.8026 143.943 26.3866 143.943 25.7625V24.2371C143.943 23.4397 144.186 23.1277 145.018 22.7464C145.711 22.4343 146.301 21.6023 146.682 20.2155C147.064 18.8288 147.41 16.2633 147.688 12.4498L147.861 10.0576C147.93 9.36427 148.485 8.87891 149.109 8.87891H158.574C159.198 8.87891 159.752 9.39894 159.752 10.0576V25.4852Z" fill="#FF6927"/>
<path d="M174.59 22.9197H167.552L166.408 25.8319C166.165 26.3866 165.784 26.6639 165.194 26.6639H163.634C163.01 26.6639 162.56 26.1439 162.56 25.5545C162.56 25.4158 162.594 25.2425 162.629 25.1385L169.043 9.71095C169.285 9.15626 169.701 8.87891 170.291 8.87891H172.128C172.717 8.87891 173.133 9.15626 173.376 9.71095L179.79 25.1385C179.825 25.2772 179.859 25.4158 179.859 25.5545C179.859 26.1439 179.374 26.6639 178.784 26.6639H176.982C176.392 26.6639 175.976 26.3866 175.768 25.8319L174.59 22.9197ZM171.088 14.0792L169.077 19.1061H173.064L171.088 14.0792Z" fill="#FF6927"/>
<path fill-rule="evenodd" clip-rule="evenodd" d="M197.02 25.4852C197.02 26.1092 196.5 26.6639 195.841 26.6639H194.108C193.484 26.6639 192.929 26.1439 192.929 25.4852V12.6925H186.689V25.4852C186.689 26.1092 186.169 26.6639 185.51 26.6639H183.776C183.152 26.6639 182.598 26.1439 182.598 25.4852V10.0576C182.598 9.4336 183.118 8.87891 183.776 8.87891H195.806C196.43 8.87891 196.985 9.39894 196.985 10.0576V25.4852H197.02Z" fill="#FF6927"/>
<path d="M201.076 10.0576C201.076 9.4336 201.596 8.87891 202.255 8.87891H203.988C204.612 8.87891 205.167 9.39894 205.167 10.0576V14.4606C205.722 14.3912 206.242 14.3565 206.727 14.3565C210.991 14.3565 213.21 16.61 213.21 20.3542C213.21 24.2024 210.506 26.7332 205.86 26.7332C204.855 26.7332 203.642 26.6986 202.255 26.6986C201.631 26.6986 201.076 26.1439 201.076 25.5198V10.0576ZM205.132 22.8157C205.756 22.885 206.138 22.9197 206.311 22.9197C208.01 22.9197 208.842 22.1223 208.842 20.4582C208.842 18.9328 207.871 18.1701 206.311 18.1701C206.068 18.1701 205.652 18.2048 205.098 18.3088V22.8157H205.132ZM219 25.4852C219 26.1092 218.48 26.6639 217.821 26.6639H216.088C215.464 26.6639 214.909 26.1439 214.909 25.4852V10.0576C214.909 9.4336 215.429 8.87891 216.088 8.87891H217.821C218.445 8.87891 219 9.39894 219 10.0576V25.4852Z" fill="#FF6927"/>
</svg>
