<svg width="13" height="19" viewBox="0 0 13 19" fill="none" xmlns="http://www.w3.org/2000/svg">
<path d="M6.5 0.173828C2.91159 0.173828 0 2.76575 0 5.95954C0 11.1024 6.5 18.1738 6.5 18.1738C6.5 18.1738 13 11.1024 13 5.95954C13 2.76575 10.0884 0.173828 6.5 0.173828ZM6.5 9.17383C5.98577 9.17383 5.48309 9.02302 5.05552 8.74046C4.62795 8.45791 4.2947 8.05631 4.09791 7.58644C3.90112 7.11658 3.84964 6.59955 3.94996 6.10074C4.05028 5.60193 4.29791 5.14375 4.66152 4.78412C5.02514 4.4245 5.48841 4.1796 5.99276 4.08038C6.49712 3.98116 7.01989 4.03208 7.49498 4.22671C7.97006 4.42133 8.37613 4.75092 8.66182 5.17379C8.94751 5.59666 9.1 6.09382 9.1 6.6024C9.09925 7.28416 8.82508 7.93778 8.33765 8.41985C7.85021 8.90193 7.18933 9.17308 6.5 9.17383Z" fill="#00BC80"/>
</svg>
