<svg width="20" height="21" viewBox="0 0 20 21" fill="none" xmlns="http://www.w3.org/2000/svg">
<path d="M9.96933 5.01514C7.10457 5.01514 4.77344 7.3212 4.77344 10.156C4.77344 12.9905 7.10425 15.2966 9.96933 15.2966C12.8341 15.2966 15.1652 12.9905 15.1652 10.156C15.1652 7.3212 12.8341 5.01514 9.96933 5.01514ZM9.96933 13.404C8.14772 13.404 6.66602 11.9467 6.66602 10.156C6.66602 8.365 8.14772 6.90804 9.96933 6.90804C11.7906 6.90804 13.2726 8.365 13.2726 10.156C13.2726 11.947 11.7909 13.404 9.96933 13.404Z" fill="#00BC80"/>
<path d="M14.176 0.201172H5.72951C2.57043 0.201172 0 2.77128 0 5.93069V14.4546C0 17.6137 2.57011 20.1841 5.72951 20.1841H14.176C17.3354 20.1841 19.9055 17.6137 19.9055 14.4546V5.93069C19.9055 2.77161 17.3354 0.201172 14.176 0.201172ZM18.0093 14.4546C18.0093 16.5683 16.2896 18.288 14.176 18.288H5.72951C3.61586 18.288 1.89616 16.5683 1.89616 14.4546V5.93069C1.89616 3.81704 3.61586 2.09734 5.72951 2.09734H14.176C16.2896 2.09734 18.0093 3.81704 18.0093 5.93069V14.4546Z" fill="#00BC80"/>
<path d="M15.2577 6.02761C15.9329 6.02761 16.4802 5.48026 16.4802 4.80506C16.4802 4.12987 15.9329 3.58252 15.2577 3.58252C14.5825 3.58252 14.0352 4.12987 14.0352 4.80506C14.0352 5.48026 14.5825 6.02761 15.2577 6.02761Z" fill="#00BC80"/>
</svg>
