<svg width="16" height="13" viewBox="0 0 16 13" fill="none" xmlns="http://www.w3.org/2000/svg">
<path d="M15.094 2.28615C15.0945 1.88505 14.9792 1.49232 14.7619 1.15518C14.5446 0.818045 14.2346 0.550857 13.869 0.385747C13.5035 0.220637 13.098 0.164633 12.7014 0.224471C12.3048 0.284309 11.9339 0.45744 11.6333 0.723046C11.4706 0.866584 11.3311 1.03449 11.2199 1.22077V1.22272C11.2023 1.252 11.1857 1.28193 11.1694 1.31185L11.1616 1.32779C11.148 1.35349 11.1353 1.37952 11.1229 1.40587C11.119 1.414 11.1154 1.42213 11.1119 1.43027C11.1011 1.45401 11.0907 1.47809 11.081 1.50249C11.0767 1.51257 11.0728 1.52265 11.0689 1.53274C11.0601 1.55551 11.0517 1.57828 11.0435 1.60138L11.0318 1.63586C11.0247 1.65798 11.0178 1.68043 11.0113 1.70288C11.0074 1.71556 11.0039 1.72792 11.0006 1.74061C10.9944 1.76241 10.9892 1.78453 10.984 1.80567C10.9808 1.81901 10.9775 1.83235 10.9746 1.84569C10.97 1.86781 10.9658 1.89025 10.9619 1.91075C10.9593 1.92441 10.9567 1.93807 10.9544 1.95174C10.9508 1.97451 10.9479 1.9976 10.945 2.0207C10.9433 2.03404 10.9414 2.04738 10.9398 2.06104C10.9372 2.08609 10.9355 2.11114 10.9336 2.13651C10.9336 2.14822 10.9316 2.15993 10.931 2.17164C10.929 2.20873 10.9277 2.24582 10.9277 2.28355C10.9277 2.31608 10.9277 2.34861 10.9303 2.37919V2.40001C10.9321 2.43059 10.9343 2.46117 10.9372 2.49175L10.9391 2.50736C10.942 2.53501 10.9453 2.56234 10.9495 2.58934C10.9495 2.59487 10.9495 2.60073 10.9518 2.60626C10.9564 2.63586 10.9619 2.66514 10.9677 2.69442C10.9677 2.70157 10.9707 2.7084 10.972 2.71556C10.9778 2.74354 10.9843 2.77151 10.9915 2.79916C10.9915 2.80144 10.9915 2.80339 10.9915 2.80535C10.999 2.8343 11.0071 2.8626 11.0159 2.8909L11.0227 2.91302C11.0315 2.94067 11.0406 2.96767 11.0504 2.99467C11.0523 3.00053 11.0546 3.00639 11.0569 3.01224C11.0657 3.03534 11.0748 3.05844 11.0842 3.08121C11.0868 3.08804 11.0894 3.09454 11.0923 3.10105C11.1034 3.12675 11.1148 3.15245 11.1268 3.17782L11.1376 3.19962C11.1489 3.22239 11.1603 3.24516 11.1724 3.26761C11.3422 3.5832 11.5902 3.8499 11.8926 4.04217C11.972 4.09288 12.0548 4.13799 12.1405 4.17717L12.1532 4.18303C12.2109 4.20905 12.2697 4.23247 12.3298 4.25329L12.3607 4.2637L12.4095 4.27899C12.4242 4.28355 12.4388 4.28745 12.4538 4.29168L12.5162 4.30794L12.5725 4.32096L12.6099 4.32844L12.6694 4.33917L12.7 4.34405C12.7293 4.34828 12.7589 4.35219 12.7885 4.35544L12.8135 4.35772C12.8373 4.35967 12.8614 4.36162 12.8854 4.36292L12.9134 4.36455C12.9459 4.36455 12.9765 4.36715 13.0084 4.36715C13.0461 4.36715 13.0832 4.36715 13.1203 4.3639L13.1554 4.3613C13.1808 4.35934 13.2059 4.35772 13.2309 4.35511L13.2716 4.34991C13.2944 4.34698 13.3175 4.34405 13.3402 4.34048L13.3812 4.33299C13.4033 4.32909 13.4258 4.32486 13.4463 4.32031L13.4863 4.31087C13.5084 4.30567 13.5305 4.30046 13.5513 4.29428C13.564 4.29103 13.5764 4.28745 13.5891 4.28355C13.6115 4.27704 13.634 4.27021 13.6561 4.26305L13.6906 4.25134C13.7137 4.24321 13.7364 4.23475 13.7592 4.22597L13.7895 4.21393C13.8139 4.20417 13.8379 4.19376 13.8617 4.18303L13.8861 4.17197C13.9124 4.1596 13.9385 4.14692 13.9642 4.13325L13.9801 4.12545C14.01 4.10918 14.04 4.09292 14.0692 4.07502H14.0712C14.259 3.96464 14.4284 3.8257 14.5735 3.66318C14.9094 3.28317 15.0945 2.79334 15.094 2.28615Z" fill="#00BC80"/>
<path d="M11.0403 4.70915L7.60636 7.37993C7.51502 7.45094 7.40261 7.48949 7.28691 7.48949C7.17121 7.48949 7.0588 7.45094 6.96746 7.37993L2.28301 3.73648C2.22798 3.69491 2.18175 3.64283 2.14701 3.58324C2.11228 3.52366 2.08974 3.45777 2.08069 3.38939C2.07164 3.32102 2.07627 3.25153 2.09431 3.18496C2.11236 3.1184 2.14345 3.05608 2.18578 3.00163C2.22811 2.94718 2.28085 2.90169 2.34091 2.8678C2.40098 2.83391 2.46718 2.81229 2.53568 2.80421C2.60417 2.79613 2.67359 2.80174 2.73989 2.82071C2.8062 2.83969 2.86807 2.87165 2.92192 2.91475L7.28691 6.30967L10.352 3.92581C10.0554 3.44603 9.8945 2.8948 9.88643 2.33081C9.87835 1.76683 10.0234 1.21122 10.3061 0.723145H1.82173C1.33873 0.723661 0.87567 0.915759 0.534142 1.25729C0.192614 1.59881 0.000516663 2.06188 0 2.54487V10.3523C0.000516663 10.8353 0.192614 11.2983 0.534142 11.6399C0.87567 11.9814 1.33873 12.1735 1.82173 12.174H12.7521C13.2351 12.1735 13.6981 11.9814 14.0397 11.6399C14.3812 11.2983 14.5733 10.8353 14.5738 10.3523V4.99087C14.0259 5.30824 13.3943 5.45128 12.7631 5.40096C12.1319 5.35063 11.531 5.10933 11.0403 4.70915Z" fill="#00BC80"/>
</svg>
