<svg width="167" height="35" viewBox="0 0 167 35" fill="none" xmlns="http://www.w3.org/2000/svg">
<path d="M0 9.54839H8.87934L10.9114 18.113H11.0219L12.9656 9.54839H21.8229V25.2032H16.4555V12.9058H16.323L13.2362 25.2032H8.24984L5.2514 12.9002H5.09679V25.1977H0V9.54839ZM52.3594 15.6944H52.4478L56.1364 9.54839H62.9561L57.6771 16.8816L63.4475 25.1977H56.2911L52.4478 18.5547H52.3594V25.1977H46.3681V9.54287H52.3594V15.6944ZM76.9598 13.8445C75.9548 13.4635 74.4749 13.0383 72.3103 13.0383C71.1231 13.0383 69.7371 13.0604 69.7371 14.0875C69.7371 14.8274 70.6758 15.0041 71.6808 15.1808C74.4528 15.7164 77.9869 16.2797 77.9869 20.2113C77.9869 21.9784 77.1807 25.4683 70.339 25.4683C68.7762 25.4683 66.3576 25.3578 63.8783 24.7283V20.6586C66.1367 21.5532 67.9921 21.7078 69.2677 21.7078C70.339 21.7078 71.9514 21.5753 71.9514 20.6144C71.9514 19.6757 70.5654 19.5653 69.4002 19.3168C67.1417 18.8474 63.696 18.1958 63.696 14.3525C63.696 12.1603 65.1262 9.27782 71.7692 9.27782C73.4037 9.27782 75.0768 9.41586 76.9598 9.81345V13.8445ZM41.3265 19.9242L45.087 27.8096L45.0704 27.8317H39.3551L36.9696 21.8955L33.7669 23.3809L23.126 28.2955L33.7669 3.02694L38.9686 14.474L45.0704 12.3756L33.7669 17.8258L28.024 20.5868L44.6894 14.6507L33.7724 19.7696L28.0296 22.4809L33.7724 20.4046L44.7446 16.4895L33.7724 21.5808L28.0517 24.2203L33.7724 22.1716L44.7446 18.2289L41.3265 19.9242ZM34.8437 16.1361L33.8442 13.5739L33.7669 13.7782L32.7177 17.0307L33.7669 16.5944L34.8437 16.1361ZM20.5528 8.50474C23.4132 4.25281 28.2615 1.45869 33.7669 1.45869C39.2723 1.45869 44.1206 4.25281 46.981 8.50474H48.2234C45.2416 3.65092 39.8797 0.415039 33.7669 0.415039C27.6541 0.415039 22.2977 3.65092 19.3104 8.49922H20.5528V8.50474ZM46.981 26.2413C44.1261 30.4933 39.2723 33.2874 33.7669 33.2874C28.2615 33.2874 23.4132 30.4933 20.5528 26.2413H19.3104C22.2922 31.0952 27.6485 34.331 33.7669 34.331C39.8797 34.331 45.236 31.0952 48.2234 26.2413H46.981Z" fill="white"/>
<path d="M0 9.54839H8.87934L10.9114 18.113H11.0219L12.9656 9.54839H21.8229V25.2032H16.4555V12.9058H16.323L13.2362 25.2032H8.24984L5.2514 12.9002H5.09679V25.1977H0V9.54839ZM52.3594 15.6944H52.4478L56.1364 9.54839H62.9561L57.6771 16.8816L63.4475 25.1977H56.2911L52.4478 18.5547H52.3594V25.1977H46.3681V9.54287H52.3594V15.6944ZM76.9598 13.8445C75.9548 13.4635 74.4749 13.0383 72.3103 13.0383C71.1231 13.0383 69.7371 13.0604 69.7371 14.0875C69.7371 14.8274 70.6758 15.0041 71.6808 15.1808C74.4528 15.7164 77.9869 16.2797 77.9869 20.2113C77.9869 21.9784 77.1807 25.4683 70.339 25.4683C68.7762 25.4683 66.3576 25.3578 63.8783 24.7283V20.6586C66.1367 21.5532 67.9921 21.7078 69.2677 21.7078C70.339 21.7078 71.9514 21.5753 71.9514 20.6144C71.9514 19.6757 70.5654 19.5653 69.4002 19.3168C67.1417 18.8474 63.696 18.1958 63.696 14.3525C63.696 12.1603 65.1262 9.27782 71.7692 9.27782C73.4037 9.27782 75.0768 9.41586 76.9598 9.81345V13.8445ZM41.3265 19.9242L45.087 27.8096L45.0704 27.8317H39.3551L36.9696 21.8955L33.7669 23.3809L23.126 28.2955L33.7669 3.02694L38.9686 14.474L45.0704 12.3756L33.7669 17.8258L28.024 20.5868L44.6894 14.6507L33.7724 19.7696L28.0296 22.4809L33.7724 20.4046L44.7446 16.4895L33.7724 21.5808L28.0517 24.2203L33.7724 22.1716L44.7446 18.2289L41.3265 19.9242ZM34.8437 16.1361L33.8442 13.5739L33.7669 13.7782L32.7177 17.0307L33.7669 16.5944L34.8437 16.1361ZM20.5528 8.50474C23.4132 4.25281 28.2615 1.45869 33.7669 1.45869C39.2723 1.45869 44.1206 4.25281 46.981 8.50474H48.2234C45.2416 3.65092 39.8797 0.415039 33.7669 0.415039C27.6541 0.415039 22.2977 3.65092 19.3104 8.49922H20.5528V8.50474ZM46.981 26.2413C44.1261 30.4933 39.2723 33.2874 33.7669 33.2874C28.2615 33.2874 23.4132 30.4933 20.5528 26.2413H19.3104C22.2922 31.0952 27.6485 34.331 33.7669 34.331C39.8797 34.331 45.236 31.0952 48.2234 26.2413H46.981Z" fill="url(#paint0_linear)"/>
<path d="M82.9564 9.54883H84.878L85.3198 11.4042H85.3419L85.7615 9.54883H87.6777V12.9393H86.5125V10.2722H86.4849L85.8167 12.9393H84.7344L84.0828 10.2722H84.0497V12.9393H82.9453V9.54883H82.9564Z" fill="white"/>
<path d="M82.9564 9.54883H84.878L85.3198 11.4042H85.3419L85.7615 9.54883H87.6777V12.9393H86.5125V10.2722H86.4849L85.8167 12.9393H84.7344L84.0828 10.2722H84.0497V12.9393H82.9453V9.54883H82.9564Z" fill="url(#paint1_linear)"/>
<path d="M91.1063 9.54883V10.3495H89.4441V10.841H91.0345V11.614H89.4441V12.1442H91.1394V12.9448H88.1465V9.55435H91.1063V9.54883Z" fill="white"/>
<path d="M91.1063 9.54883V10.3495H89.4441V10.841H91.0345V11.614H89.4441V12.1442H91.1394V12.9448H88.1465V9.55435H91.1063V9.54883Z" fill="url(#paint2_linear)"/>
<path d="M93.647 12.9393V11.4042H93.6194L92.8573 12.9393H91.3057L92.515 11.1392L91.4492 9.54883H92.8518L93.6138 10.979H93.6415V9.54883H94.8894V10.979H94.917L95.6791 9.54883H97.0816L96.0159 11.1392L97.2252 12.9393H95.6735L94.9115 11.4042H94.8839V12.9393H93.647Z" fill="white"/>
<path d="M93.647 12.9393V11.4042H93.6194L92.8573 12.9393H91.3057L92.515 11.1392L91.4492 9.54883H92.8518L93.6138 10.979H93.6415V9.54883H94.8894V10.979H94.917L95.6791 9.54883H97.0816L96.0159 11.1392L97.2252 12.9393H95.6735L94.9115 11.4042H94.8839V12.9393H93.647Z" fill="url(#paint3_linear)"/>
<path d="M101.135 9.54883V12.0337H101.493V13.6903H100.196V12.9393H98.6883V13.6903H97.3906V12.0337H97.6502C98.1085 11.5754 98.114 11.0508 98.114 10.6311V9.54883H101.135ZM99.2571 10.4213V10.8354C99.2571 11.2883 99.2018 11.6637 98.9202 12.0392H99.8313V10.4268H99.2571V10.4213Z" fill="white"/>
<path d="M101.135 9.54883V12.0337H101.493V13.6903H100.196V12.9393H98.6883V13.6903H97.3906V12.0337H97.6502C98.1085 11.5754 98.114 11.0508 98.114 10.6311V9.54883H101.135ZM99.2571 10.4213V10.8354C99.2571 11.2883 99.2018 11.6637 98.9202 12.0392H99.8313V10.4268H99.2571V10.4213Z" fill="url(#paint4_linear)"/>
<path d="M102.886 9.54883L103.36 11.0177H103.382L103.846 9.54883H105.127L104.045 12.111C103.891 12.4755 103.625 12.9945 102.792 12.9945C102.56 12.9945 102.201 12.9504 101.914 12.8786V12.0227C102.123 12.0889 102.25 12.1 102.35 12.1C102.433 12.1 102.582 12.0889 102.582 11.973C102.582 11.9454 102.582 11.8846 102.504 11.7355L101.411 9.54883H102.886Z" fill="white"/>
<path d="M102.886 9.54883L103.36 11.0177H103.382L103.846 9.54883H105.127L104.045 12.111C103.891 12.4755 103.625 12.9945 102.792 12.9945C102.56 12.9945 102.201 12.9504 101.914 12.8786V12.0227C102.123 12.0889 102.25 12.1 102.35 12.1C102.433 12.1 102.582 12.0889 102.582 11.973C102.582 11.9454 102.582 11.8846 102.504 11.7355L101.411 9.54883H102.886Z" fill="url(#paint5_linear)"/>
<path d="M107.452 9.54883H108.749V12.9393H107.452V11.6914H106.585V12.9393H105.287V9.54883H106.585V10.7195H107.452V9.54883Z" fill="white"/>
<path d="M107.452 9.54883H108.749V12.9393H107.452V11.6914H106.585V12.9393H105.287V9.54883H106.585V10.7195H107.452V9.54883Z" fill="url(#paint6_linear)"/>
<path d="M111.858 9.54883L113.068 12.9393H111.704L111.472 12.2049H110.456L110.229 12.9393H108.932L110.119 9.54883H111.858ZM110.947 10.355L110.599 11.4153H111.323L110.969 10.355H110.947Z" fill="white"/>
<path d="M111.858 9.54883L113.068 12.9393H111.704L111.472 12.2049H110.456L110.229 12.9393H108.932L110.119 9.54883H111.858ZM110.947 10.355L110.599 11.4153H111.323L110.969 10.355H110.947Z" fill="url(#paint7_linear)"/>
<path d="M115.215 9.54883C116.237 9.54883 116.684 10.1452 116.684 10.7637C116.684 11.3048 116.298 11.9619 115.238 11.9619H114.525V12.9393H113.228V9.54883H115.215ZM114.492 11.1778H114.779C114.934 11.1778 115.376 11.1668 115.376 10.7581C115.376 10.5594 115.271 10.3385 114.774 10.3385H114.492V11.1778Z" fill="white"/>
<path d="M115.215 9.54883C116.237 9.54883 116.684 10.1452 116.684 10.7637C116.684 11.3048 116.298 11.9619 115.238 11.9619H114.525V12.9393H113.228V9.54883H115.215ZM114.492 11.1778H114.779C114.934 11.1778 115.376 11.1668 115.376 10.7581C115.376 10.5594 115.271 10.3385 114.774 10.3385H114.492V11.1778Z" fill="url(#paint8_linear)"/>
<path d="M120.65 11.244C120.65 12.3263 119.954 13 118.762 13C117.563 13 116.873 12.3263 116.873 11.244C116.873 10.1617 117.563 9.48804 118.762 9.48804C119.954 9.49356 120.65 10.1672 120.65 11.244ZM118.237 11.244C118.237 11.5974 118.27 12.1828 118.762 12.1828C119.247 12.1828 119.286 11.5974 119.286 11.244C119.286 10.8906 119.253 10.3053 118.762 10.3053C118.27 10.3053 118.237 10.8906 118.237 11.244Z" fill="white"/>
<path d="M120.65 11.244C120.65 12.3263 119.954 13 118.762 13C117.563 13 116.873 12.3263 116.873 11.244C116.873 10.1617 117.563 9.48804 118.762 9.48804C119.954 9.49356 120.65 10.1672 120.65 11.244ZM118.237 11.244C118.237 11.5974 118.27 12.1828 118.762 12.1828C119.247 12.1828 119.286 11.5974 119.286 11.244C119.286 10.8906 119.253 10.3053 118.762 10.3053C118.27 10.3053 118.237 10.8906 118.237 11.244Z" fill="url(#paint9_linear)"/>
<path d="M124.504 9.54883V12.0337H124.863V13.6903H123.565V12.9393H122.057V13.6903H120.76V12.0337H121.019C121.478 11.5754 121.483 11.0508 121.483 10.6311V9.54883H124.504ZM122.626 10.4213V10.8354C122.626 11.2883 122.571 11.6637 122.289 12.0392H123.2V10.4268H122.626V10.4213Z" fill="white"/>
<path d="M124.504 9.54883V12.0337H124.863V13.6903H123.565V12.9393H122.057V13.6903H120.76V12.0337H121.019C121.478 11.5754 121.483 11.0508 121.483 10.6311V9.54883H124.504ZM122.626 10.4213V10.8354C122.626 11.2883 122.571 11.6637 122.289 12.0392H123.2V10.4268H122.626V10.4213Z" fill="url(#paint10_linear)"/>
<path d="M127.342 9.54883H128.64V12.9393H127.342V11.6914H126.475V12.9393H125.178V9.54883H126.475V10.7195H127.342V9.54883Z" fill="white"/>
<path d="M127.342 9.54883H128.64V12.9393H127.342V11.6914H126.475V12.9393H125.178V9.54883H126.475V10.7195H127.342V9.54883Z" fill="url(#paint11_linear)"/>
<path d="M129.098 9.54883H130.395V10.5262H131.108C132.063 10.5262 132.483 11.0895 132.483 11.7355C132.483 12.3816 132.063 12.9393 131.108 12.9393H129.098V9.54883ZM130.627 12.1552C130.76 12.1552 131.179 12.1386 131.179 11.7355C131.179 11.5257 131.069 11.3159 130.633 11.3159H130.368V12.1607H130.627V12.1552ZM134.051 9.54883V12.9393H132.753V9.54883H134.051Z" fill="white"/>
<path d="M129.098 9.54883H130.395V10.5262H131.108C132.063 10.5262 132.483 11.0895 132.483 11.7355C132.483 12.3816 132.063 12.9393 131.108 12.9393H129.098V9.54883ZM130.627 12.1552C130.76 12.1552 131.179 12.1386 131.179 11.7355C131.179 11.5257 131.069 11.3159 130.633 11.3159H130.368V12.1607H130.627V12.1552ZM134.051 9.54883V12.9393H132.753V9.54883H134.051Z" fill="url(#paint12_linear)"/>
<path d="M135.813 9.54867V11.4869H135.835L136.691 9.54867H138.21V12.9392H136.912V11.0396H136.89L136.034 12.9392H134.516V9.54867H135.813ZM137.475 8.58233C137.37 9.29466 136.564 9.32227 136.36 9.32227C136.156 9.32227 135.349 9.29466 135.245 8.58233L135.841 8.45532C135.852 8.73694 136.233 8.75351 136.36 8.75351C136.487 8.75351 136.868 8.73142 136.879 8.45532L137.475 8.58233Z" fill="white"/>
<path d="M135.813 9.54867V11.4869H135.835L136.691 9.54867H138.21V12.9392H136.912V11.0396H136.89L136.034 12.9392H134.516V9.54867H135.813ZM137.475 8.58233C137.37 9.29466 136.564 9.32227 136.36 9.32227C136.156 9.32227 135.349 9.29466 135.245 8.58233L135.841 8.45532C135.852 8.73694 136.233 8.75351 136.36 8.75351C136.487 8.75351 136.868 8.73142 136.879 8.45532L137.475 8.58233Z" fill="url(#paint13_linear)"/>
<path d="M85.5738 15.6782L86.7776 19.0687H85.4136L85.1817 18.3343H84.1657L83.9393 19.0687H82.6416L83.8288 15.6782H85.5738ZM84.6626 16.4844L84.3148 17.5447H85.0381L84.6847 16.4844H84.6626Z" fill="white"/>
<path d="M85.5738 15.6782L86.7776 19.0687H85.4136L85.1817 18.3343H84.1657L83.9393 19.0687H82.6416L83.8288 15.6782H85.5738ZM84.6626 16.4844L84.3148 17.5447H85.0381L84.6847 16.4844H84.6626Z" fill="url(#paint14_linear)"/>
<path d="M88.9865 15.6782C90.0467 15.6782 90.24 16.247 90.24 16.5617C90.24 16.9483 89.9749 17.263 89.5497 17.3403V17.3624C89.8866 17.4121 90.3173 17.633 90.3173 18.1686C90.3173 19.0245 89.3509 19.0742 88.9147 19.0742H86.9434V15.6837H88.9865V15.6782ZM88.1748 17.0201H88.4785C88.9257 17.0201 88.9699 16.7881 88.9699 16.6887C88.9699 16.5507 88.8705 16.3629 88.5116 16.3629H88.1748V17.0201ZM88.1748 18.384H88.5061C88.9202 18.384 88.992 18.1576 88.992 18.0361C88.992 17.6937 88.5889 17.6937 88.4785 17.6937H88.1803V18.384H88.1748Z" fill="white"/>
<path d="M88.9865 15.6782C90.0467 15.6782 90.24 16.247 90.24 16.5617C90.24 16.9483 89.9749 17.263 89.5497 17.3403V17.3624C89.8866 17.4121 90.3173 17.633 90.3173 18.1686C90.3173 19.0245 89.3509 19.0742 88.9147 19.0742H86.9434V15.6837H88.9865V15.6782ZM88.1748 17.0201H88.4785C88.9257 17.0201 88.9699 16.7881 88.9699 16.6887C88.9699 16.5507 88.8705 16.3629 88.5116 16.3629H88.1748V17.0201ZM88.1748 18.384H88.5061C88.9202 18.384 88.992 18.1576 88.992 18.0361C88.992 17.6937 88.5889 17.6937 88.4785 17.6937H88.1803V18.384H88.1748Z" fill="url(#paint15_linear)"/>
<path d="M91.9627 15.6782V17.6164H91.9848L92.8407 15.6782H94.3592V19.0687H93.0616V17.1692H93.0395L92.1836 19.0687H90.665V15.6782H91.9627Z" fill="white"/>
<path d="M91.9627 15.6782V17.6164H91.9848L92.8407 15.6782H94.3592V19.0687H93.0616V17.1692H93.0395L92.1836 19.0687H90.665V15.6782H91.9627Z" fill="url(#paint16_linear)"/>
<path d="M97.4621 15.6782L98.6659 19.0687H97.302L97.07 18.3343H96.054L95.8221 19.0742H94.5244L95.7116 15.6837H97.4621V15.6782ZM96.551 16.4844L96.2031 17.5447H96.9265L96.5731 16.4844H96.551Z" fill="white"/>
<path d="M97.4621 15.6782L98.6659 19.0687H97.302L97.07 18.3343H96.054L95.8221 19.0742H94.5244L95.7116 15.6837H97.4621V15.6782ZM96.551 16.4844L96.2031 17.5447H96.9265L96.5731 16.4844H96.551Z" fill="url(#paint17_linear)"/>
<path d="M98.832 15.6782H100.13V18.1024H100.98V15.6782H102.278V18.1024H102.637V19.7976H101.339V19.0687H98.832V15.6782Z" fill="white"/>
<path d="M98.832 15.6782H100.13V18.1024H100.98V15.6782H102.278V18.1024H102.637V19.7976H101.339V19.0687H98.832V15.6782Z" fill="url(#paint18_linear)"/>
<path d="M104.243 15.6782V17.6164H104.265L105.121 15.6782H106.64V19.0687H105.342V17.1692H105.32L104.464 19.0687H102.945V15.6782H104.243Z" fill="white"/>
<path d="M104.243 15.6782V17.6164H104.265L105.121 15.6782H106.64V19.0687H105.342V17.1692H105.32L104.464 19.0687H102.945V15.6782H104.243Z" fill="url(#paint19_linear)"/>
<path d="M110.716 17.3734C110.716 18.4557 110.025 19.1294 108.827 19.1294C107.629 19.1294 106.938 18.4557 106.938 17.3734C106.938 16.2911 107.634 15.6174 108.827 15.6174C110.025 15.623 110.716 16.2966 110.716 17.3734ZM108.302 17.3734C108.302 17.7268 108.336 18.3122 108.827 18.3122C109.318 18.3122 109.352 17.7268 109.352 17.3734C109.352 17.02 109.318 16.4347 108.827 16.4347C108.336 16.4347 108.302 17.02 108.302 17.3734Z" fill="white"/>
<path d="M110.716 17.3734C110.716 18.4557 110.025 19.1294 108.827 19.1294C107.629 19.1294 106.938 18.4557 106.938 17.3734C106.938 16.2911 107.634 15.6174 108.827 15.6174C110.025 15.623 110.716 16.2966 110.716 17.3734ZM108.302 17.3734C108.302 17.7268 108.336 18.3122 108.827 18.3122C109.318 18.3122 109.352 17.7268 109.352 17.3734C109.352 17.02 109.318 16.4347 108.827 16.4347C108.336 16.4347 108.302 17.02 108.302 17.3734Z" fill="url(#paint20_linear)"/>
<path d="M113.183 15.6782H114.481V19.0687H113.183V17.8207H112.316V19.0687H111.019V15.6782H112.316V16.8489H113.183V15.6782Z" fill="white"/>
<path d="M113.183 15.6782H114.481V19.0687H113.183V17.8207H112.316V19.0687H111.019V15.6782H112.316V16.8489H113.183V15.6782Z" fill="url(#paint21_linear)"/>
<path d="M117.104 15.6782H118.402V19.0687H117.104V17.8152H116.237V19.0687H114.939V15.6782H116.237V16.8489H117.104V15.6782Z" fill="white"/>
<path d="M117.104 15.6782H118.402V19.0687H117.104V17.8152H116.237V19.0687H114.939V15.6782H116.237V16.8489H117.104V15.6782Z" fill="url(#paint22_linear)"/>
<path d="M122.482 17.379C122.482 18.4613 121.792 19.135 120.594 19.135C119.395 19.135 118.705 18.4613 118.705 17.379C118.705 16.2967 119.395 15.623 120.594 15.623C121.792 15.623 122.482 16.2967 122.482 17.379ZM120.069 17.379C120.069 17.7324 120.102 18.3178 120.594 18.3178C121.085 18.3178 121.118 17.7324 121.118 17.379C121.118 17.0256 121.085 16.4403 120.594 16.4403C120.108 16.4348 120.069 17.0201 120.069 17.379Z" fill="white"/>
<path d="M122.482 17.379C122.482 18.4613 121.792 19.135 120.594 19.135C119.395 19.135 118.705 18.4613 118.705 17.379C118.705 16.2967 119.395 15.623 120.594 15.623C121.792 15.623 122.482 16.2967 122.482 17.379ZM120.069 17.379C120.069 17.7324 120.102 18.3178 120.594 18.3178C121.085 18.3178 121.118 17.7324 121.118 17.379C121.118 17.0256 121.085 16.4403 120.594 16.4403C120.108 16.4348 120.069 17.0201 120.069 17.379Z" fill="url(#paint23_linear)"/>
<path d="M124.355 18.185H122.853V17.3401H124.355V18.185Z" fill="white"/>
<path d="M124.355 18.185H122.853V17.3401H124.355V18.185Z" fill="url(#paint24_linear)"/>
<path d="M126.105 17.0144H126.127L126.928 15.6836H128.402L127.259 17.2739L128.507 19.0741H126.955L126.122 17.6329H126.099V19.0741H124.802V15.6836H126.099V17.0144H126.105Z" fill="white"/>
<path d="M126.105 17.0144H126.127L126.928 15.6836H128.402L127.259 17.2739L128.507 19.0741H126.955L126.122 17.6329H126.099V19.0741H124.802V15.6836H126.099V17.0144H126.105Z" fill="url(#paint25_linear)"/>
<path d="M132.108 17.379C132.108 18.4613 131.418 19.135 130.22 19.135C129.021 19.135 128.331 18.4613 128.331 17.379C128.331 16.2967 129.021 15.623 130.22 15.623C131.418 15.623 132.108 16.2967 132.108 17.379ZM129.695 17.379C129.695 17.7324 129.728 18.3178 130.22 18.3178C130.711 18.3178 130.744 17.7324 130.744 17.379C130.744 17.0256 130.711 16.4403 130.22 16.4403C129.728 16.4348 129.695 17.0201 129.695 17.379Z" fill="white"/>
<path d="M132.108 17.379C132.108 18.4613 131.418 19.135 130.22 19.135C129.021 19.135 128.331 18.4613 128.331 17.379C128.331 16.2967 129.021 15.623 130.22 15.623C131.418 15.623 132.108 16.2967 132.108 17.379ZM129.695 17.379C129.695 17.7324 129.728 18.3178 130.22 18.3178C130.711 18.3178 130.744 17.7324 130.744 17.379C130.744 17.0256 130.711 16.4403 130.22 16.4403C129.728 16.4348 129.695 17.0201 129.695 17.379Z" fill="url(#paint26_linear)"/>
<path d="M135.261 18.997C134.868 19.1019 134.559 19.135 134.311 19.135C132.997 19.135 132.284 18.4061 132.284 17.379C132.284 16.5066 132.831 15.623 134.344 15.623C134.73 15.623 135.018 15.6838 135.172 15.7169L135.249 15.7335V16.628C135.062 16.5563 134.83 16.4955 134.565 16.4955C134.013 16.4955 133.648 16.86 133.648 17.3459C133.648 17.6607 133.775 18.2239 134.587 18.2239C134.714 18.2239 134.907 18.2018 135.255 18.0914V18.997H135.261Z" fill="white"/>
<path d="M135.261 18.997C134.868 19.1019 134.559 19.135 134.311 19.135C132.997 19.135 132.284 18.4061 132.284 17.379C132.284 16.5066 132.831 15.623 134.344 15.623C134.73 15.623 135.018 15.6838 135.172 15.7169L135.249 15.7335V16.628C135.062 16.5563 134.83 16.4955 134.565 16.4955C134.013 16.4955 133.648 16.86 133.648 17.3459C133.648 17.6607 133.775 18.2239 134.587 18.2239C134.714 18.2239 134.907 18.2018 135.255 18.0914V18.997H135.261Z" fill="url(#paint27_linear)"/>
<path d="M135.608 15.6782H137.53L137.971 17.5336H137.994L138.413 15.6782H140.329V19.0687H139.164V16.4016H139.137L138.468 19.0687H137.386L136.74 16.4016H136.707V19.0687H135.603L135.608 15.6782Z" fill="white"/>
<path d="M135.608 15.6782H137.53L137.971 17.5336H137.994L138.413 15.6782H140.329V19.0687H139.164V16.4016H139.137L138.468 19.0687H137.386L136.74 16.4016H136.707V19.0687H135.603L135.608 15.6782Z" fill="url(#paint28_linear)"/>
<path d="M142.102 15.6836V17.6218H142.124L142.98 15.6836H144.499V19.0741H143.201V17.1745H143.179L142.323 19.0741H140.805V15.6836H142.102Z" fill="white"/>
<path d="M142.102 15.6836V17.6218H142.124L142.98 15.6836H144.499V19.0741H143.201V17.1745H143.179L142.323 19.0741H140.805V15.6836H142.102Z" fill="url(#paint29_linear)"/>
<path d="M146.978 15.6837H148.276V19.0742H146.978V17.9036C146.923 17.9146 146.525 18.0085 146.128 18.0085C144.885 18.0085 144.847 17.2299 144.847 16.9317V15.6782H146.144V16.7605C146.144 17.0311 146.404 17.0532 146.509 17.0532C146.597 17.0532 146.763 17.0422 146.978 16.9648V15.6837Z" fill="white"/>
<path d="M146.978 15.6837H148.276V19.0742H146.978V17.9036C146.923 17.9146 146.525 18.0085 146.128 18.0085C144.885 18.0085 144.847 17.2299 144.847 16.9317V15.6782H146.144V16.7605C146.144 17.0311 146.404 17.0532 146.509 17.0532C146.597 17.0532 146.763 17.0422 146.978 16.9648V15.6837Z" fill="url(#paint30_linear)"/>
<path d="M151.7 15.6836V16.4843H150.038V16.9757H151.628V17.7488H150.038V18.2789H151.733V19.0796H148.74V15.6891H151.7V15.6836Z" fill="white"/>
<path d="M151.7 15.6836V16.4843H150.038V16.9757H151.628V17.7488H150.038V18.2789H151.733V19.0796H148.74V15.6891H151.7V15.6836Z" fill="url(#paint31_linear)"/>
<path d="M154.88 18.997C154.488 19.1019 154.178 19.135 153.93 19.135C152.616 19.135 151.903 18.4061 151.903 17.379C151.903 16.5066 152.45 15.623 153.963 15.623C154.35 15.623 154.637 15.6838 154.791 15.7169L154.869 15.7335V16.628C154.681 16.5563 154.449 16.4955 154.184 16.4955C153.632 16.4955 153.267 16.86 153.267 17.3459C153.267 17.6607 153.394 18.2239 154.206 18.2239C154.333 18.2239 154.526 18.2018 154.874 18.0914V18.997H154.88Z" fill="white"/>
<path d="M154.88 18.997C154.488 19.1019 154.178 19.135 153.93 19.135C152.616 19.135 151.903 18.4061 151.903 17.379C151.903 16.5066 152.45 15.623 153.963 15.623C154.35 15.623 154.637 15.6838 154.791 15.7169L154.869 15.7335V16.628C154.681 16.5563 154.449 16.4955 154.184 16.4955C153.632 16.4955 153.267 16.86 153.267 17.3459C153.267 17.6607 153.394 18.2239 154.206 18.2239C154.333 18.2239 154.526 18.2018 154.874 18.0914V18.997H154.88Z" fill="url(#paint32_linear)"/>
<path d="M156.531 17.0144H156.553L157.354 15.6836H158.834L157.691 17.2739L158.939 19.0741H157.387L156.553 17.6329H156.531V19.0741H155.233V15.6836H156.531V17.0144Z" fill="white"/>
<path d="M156.531 17.0144H156.553L157.354 15.6836H158.834L157.691 17.2739L158.939 19.0741H157.387L156.553 17.6329H156.531V19.0741H155.233V15.6836H156.531V17.0144Z" fill="url(#paint33_linear)"/>
<path d="M160.424 15.6836V17.6218H160.446L161.302 15.6836H162.82V19.0741H161.523V17.1745H161.5L160.645 19.0741H159.126V15.6836H160.424Z" fill="white"/>
<path d="M160.424 15.6836V17.6218H160.446L161.302 15.6836H162.82V19.0741H161.523V17.1745H161.5L160.645 19.0741H159.126V15.6836H160.424Z" fill="url(#paint34_linear)"/>
<path d="M164.577 15.6836V17.6218H164.599L165.455 15.6836H166.974V19.0741H165.676V17.1745H165.654L164.798 19.0741H163.279V15.6836H164.577ZM166.239 14.7117C166.134 15.4241 165.328 15.4517 165.124 15.4517C164.919 15.4517 164.119 15.4241 164.008 14.7117L164.605 14.5847C164.616 14.8663 164.997 14.8884 165.124 14.8884C165.251 14.8884 165.632 14.8663 165.643 14.5847L166.239 14.7117Z" fill="white"/>
<path d="M164.577 15.6836V17.6218H164.599L165.455 15.6836H166.974V19.0741H165.676V17.1745H165.654L164.798 19.0741H163.279V15.6836H164.577ZM166.239 14.7117C166.134 15.4241 165.328 15.4517 165.124 15.4517C164.919 15.4517 164.119 15.4241 164.008 14.7117L164.605 14.5847C164.616 14.8663 164.997 14.8884 165.124 14.8884C165.251 14.8884 165.632 14.8663 165.643 14.5847L166.239 14.7117Z" fill="url(#paint35_linear)"/>
<path d="M85.783 25.1264C85.3909 25.2313 85.0817 25.2644 84.8332 25.2644C83.519 25.2644 82.8066 24.53 82.8066 23.5084C82.8066 22.636 83.3533 21.7524 84.8663 21.7524C85.2529 21.7524 85.54 21.8187 85.6946 21.8463L85.7719 21.8629V22.7574C85.5842 22.6857 85.3523 22.6249 85.0872 22.6249C84.535 22.6249 84.1706 22.9894 84.1706 23.4753C84.1706 23.7901 84.2976 24.3533 85.1093 24.3533C85.2363 24.3533 85.4296 24.3312 85.7775 24.2208V25.1264H85.783Z" fill="white"/>
<path d="M85.783 25.1264C85.3909 25.2313 85.0817 25.2644 84.8332 25.2644C83.519 25.2644 82.8066 24.53 82.8066 23.5084C82.8066 22.636 83.3533 21.7524 84.8663 21.7524C85.2529 21.7524 85.54 21.8187 85.6946 21.8463L85.7719 21.8629V22.7574C85.5842 22.6857 85.3523 22.6249 85.0872 22.6249C84.535 22.6249 84.1706 22.9894 84.1706 23.4753C84.1706 23.7901 84.2976 24.3533 85.1093 24.3533C85.2363 24.3533 85.4296 24.3312 85.7775 24.2208V25.1264H85.783Z" fill="url(#paint36_linear)"/>
<path d="M88.8153 21.8074L90.0246 25.1979H88.6607L88.4288 24.4634H87.4127L87.1863 25.1979H85.8887L87.0759 21.8074H88.8153ZM87.9042 22.6136L87.5563 23.6738H88.2797L87.9263 22.6136H87.9042Z" fill="white"/>
<path d="M88.8153 21.8074L90.0246 25.1979H88.6607L88.4288 24.4634H87.4127L87.1863 25.1979H85.8887L87.0759 21.8074H88.8153ZM87.9042 22.6136L87.5563 23.6738H88.2797L87.9263 22.6136H87.9042Z" fill="url(#paint37_linear)"/>
<path d="M92.5647 22.7295H91.9352V23.3094C91.9352 24.4027 91.9131 25.2586 90.7479 25.2586C90.5326 25.2586 90.2896 25.2255 90.0908 25.1758V24.3033C90.1626 24.3199 90.2951 24.3364 90.378 24.3364C90.8694 24.3364 90.7976 23.5247 90.7976 22.8897V21.8074H93.8623V25.1979H92.5647V22.7295Z" fill="white"/>
<path d="M92.5647 22.7295H91.9352V23.3094C91.9352 24.4027 91.9131 25.2586 90.7479 25.2586C90.5326 25.2586 90.2896 25.2255 90.0908 25.1758V24.3033C90.1626 24.3199 90.2951 24.3364 90.378 24.3364C90.8694 24.3364 90.7976 23.5247 90.7976 22.8897V21.8074H93.8623V25.1979H92.5647V22.7295Z" fill="url(#paint38_linear)"/>
<path d="M97.9313 23.5084C97.9313 24.5907 97.2411 25.2644 96.0428 25.2644C94.8445 25.2644 94.1543 24.5907 94.1543 23.5084C94.1543 22.4261 94.8445 21.7524 96.0428 21.7524C97.2411 21.7524 97.9313 22.4261 97.9313 23.5084ZM95.5182 23.5084C95.5182 23.8618 95.5514 24.4472 96.0428 24.4472C96.5343 24.4472 96.5674 23.8618 96.5674 23.5084C96.5674 23.155 96.5343 22.5697 96.0428 22.5697C95.5514 22.5642 95.5182 23.155 95.5182 23.5084Z" fill="white"/>
<path d="M97.9313 23.5084C97.9313 24.5907 97.2411 25.2644 96.0428 25.2644C94.8445 25.2644 94.1543 24.5907 94.1543 23.5084C94.1543 22.4261 94.8445 21.7524 96.0428 21.7524C97.2411 21.7524 97.9313 22.4261 97.9313 23.5084ZM95.5182 23.5084C95.5182 23.8618 95.5514 24.4472 96.0428 24.4472C96.5343 24.4472 96.5674 23.8618 96.5674 23.5084C96.5674 23.155 96.5343 22.5697 96.0428 22.5697C95.5514 22.5642 95.5182 23.155 95.5182 23.5084Z" fill="url(#paint39_linear)"/>
<path d="M100.4 21.813H101.698V25.2035H100.4V23.9555H99.533V25.2035H98.2354V21.813H99.533V22.9836H100.4V21.813Z" fill="white"/>
<path d="M100.4 21.813H101.698V25.2035H100.4V23.9555H99.533V25.2035H98.2354V21.813H99.533V22.9836H100.4V21.813Z" fill="url(#paint40_linear)"/>
<defs>
<linearGradient id="paint0_linear" x1="38.9935" y1="0.415039" x2="38.9935" y2="34.331" gradientUnits="userSpaceOnUse">
<stop stop-color="#182D55"/>
<stop offset="1" stop-color="#254773"/>
</linearGradient>
<linearGradient id="paint1_linear" x1="85.3115" y1="9.54883" x2="85.3115" y2="12.9393" gradientUnits="userSpaceOnUse">
<stop stop-color="#182D55"/>
<stop offset="1" stop-color="#254773"/>
</linearGradient>
<linearGradient id="paint2_linear" x1="89.6429" y1="9.54883" x2="89.6429" y2="12.9448" gradientUnits="userSpaceOnUse">
<stop stop-color="#182D55"/>
<stop offset="1" stop-color="#254773"/>
</linearGradient>
<linearGradient id="paint3_linear" x1="94.2654" y1="9.54883" x2="94.2654" y2="12.9393" gradientUnits="userSpaceOnUse">
<stop stop-color="#182D55"/>
<stop offset="1" stop-color="#254773"/>
</linearGradient>
<linearGradient id="paint4_linear" x1="99.442" y1="9.54883" x2="99.442" y2="13.6903" gradientUnits="userSpaceOnUse">
<stop stop-color="#182D55"/>
<stop offset="1" stop-color="#254773"/>
</linearGradient>
<linearGradient id="paint5_linear" x1="103.269" y1="9.54883" x2="103.269" y2="12.9945" gradientUnits="userSpaceOnUse">
<stop stop-color="#182D55"/>
<stop offset="1" stop-color="#254773"/>
</linearGradient>
<linearGradient id="paint6_linear" x1="107.018" y1="9.54883" x2="107.018" y2="12.9393" gradientUnits="userSpaceOnUse">
<stop stop-color="#182D55"/>
<stop offset="1" stop-color="#254773"/>
</linearGradient>
<linearGradient id="paint7_linear" x1="111" y1="9.54883" x2="111" y2="12.9393" gradientUnits="userSpaceOnUse">
<stop stop-color="#182D55"/>
<stop offset="1" stop-color="#254773"/>
</linearGradient>
<linearGradient id="paint8_linear" x1="114.956" y1="9.54883" x2="114.956" y2="12.9393" gradientUnits="userSpaceOnUse">
<stop stop-color="#182D55"/>
<stop offset="1" stop-color="#254773"/>
</linearGradient>
<linearGradient id="paint9_linear" x1="118.762" y1="9.48804" x2="118.762" y2="13" gradientUnits="userSpaceOnUse">
<stop stop-color="#182D55"/>
<stop offset="1" stop-color="#254773"/>
</linearGradient>
<linearGradient id="paint10_linear" x1="122.811" y1="9.54883" x2="122.811" y2="13.6903" gradientUnits="userSpaceOnUse">
<stop stop-color="#182D55"/>
<stop offset="1" stop-color="#254773"/>
</linearGradient>
<linearGradient id="paint11_linear" x1="126.909" y1="9.54883" x2="126.909" y2="12.9393" gradientUnits="userSpaceOnUse">
<stop stop-color="#182D55"/>
<stop offset="1" stop-color="#254773"/>
</linearGradient>
<linearGradient id="paint12_linear" x1="131.574" y1="9.54883" x2="131.574" y2="12.9393" gradientUnits="userSpaceOnUse">
<stop stop-color="#182D55"/>
<stop offset="1" stop-color="#254773"/>
</linearGradient>
<linearGradient id="paint13_linear" x1="136.363" y1="8.45532" x2="136.363" y2="12.9392" gradientUnits="userSpaceOnUse">
<stop stop-color="#182D55"/>
<stop offset="1" stop-color="#254773"/>
</linearGradient>
<linearGradient id="paint14_linear" x1="84.7096" y1="15.6782" x2="84.7096" y2="19.0687" gradientUnits="userSpaceOnUse">
<stop stop-color="#182D55"/>
<stop offset="1" stop-color="#254773"/>
</linearGradient>
<linearGradient id="paint15_linear" x1="88.6303" y1="15.6782" x2="88.6303" y2="19.0742" gradientUnits="userSpaceOnUse">
<stop stop-color="#182D55"/>
<stop offset="1" stop-color="#254773"/>
</linearGradient>
<linearGradient id="paint16_linear" x1="92.5121" y1="15.6782" x2="92.5121" y2="19.0687" gradientUnits="userSpaceOnUse">
<stop stop-color="#182D55"/>
<stop offset="1" stop-color="#254773"/>
</linearGradient>
<linearGradient id="paint17_linear" x1="96.5952" y1="15.6782" x2="96.5952" y2="19.0742" gradientUnits="userSpaceOnUse">
<stop stop-color="#182D55"/>
<stop offset="1" stop-color="#254773"/>
</linearGradient>
<linearGradient id="paint18_linear" x1="100.734" y1="15.6782" x2="100.734" y2="19.7976" gradientUnits="userSpaceOnUse">
<stop stop-color="#182D55"/>
<stop offset="1" stop-color="#254773"/>
</linearGradient>
<linearGradient id="paint19_linear" x1="104.792" y1="15.6782" x2="104.792" y2="19.0687" gradientUnits="userSpaceOnUse">
<stop stop-color="#182D55"/>
<stop offset="1" stop-color="#254773"/>
</linearGradient>
<linearGradient id="paint20_linear" x1="108.827" y1="15.6174" x2="108.827" y2="19.1294" gradientUnits="userSpaceOnUse">
<stop stop-color="#182D55"/>
<stop offset="1" stop-color="#254773"/>
</linearGradient>
<linearGradient id="paint21_linear" x1="112.75" y1="15.6782" x2="112.75" y2="19.0687" gradientUnits="userSpaceOnUse">
<stop stop-color="#182D55"/>
<stop offset="1" stop-color="#254773"/>
</linearGradient>
<linearGradient id="paint22_linear" x1="116.671" y1="15.6782" x2="116.671" y2="19.0687" gradientUnits="userSpaceOnUse">
<stop stop-color="#182D55"/>
<stop offset="1" stop-color="#254773"/>
</linearGradient>
<linearGradient id="paint23_linear" x1="120.594" y1="15.623" x2="120.594" y2="19.135" gradientUnits="userSpaceOnUse">
<stop stop-color="#182D55"/>
<stop offset="1" stop-color="#254773"/>
</linearGradient>
<linearGradient id="paint24_linear" x1="123.604" y1="17.3401" x2="123.604" y2="18.185" gradientUnits="userSpaceOnUse">
<stop stop-color="#182D55"/>
<stop offset="1" stop-color="#254773"/>
</linearGradient>
<linearGradient id="paint25_linear" x1="126.654" y1="15.6836" x2="126.654" y2="19.0741" gradientUnits="userSpaceOnUse">
<stop stop-color="#182D55"/>
<stop offset="1" stop-color="#254773"/>
</linearGradient>
<linearGradient id="paint26_linear" x1="130.22" y1="15.623" x2="130.22" y2="19.135" gradientUnits="userSpaceOnUse">
<stop stop-color="#182D55"/>
<stop offset="1" stop-color="#254773"/>
</linearGradient>
<linearGradient id="paint27_linear" x1="133.772" y1="15.623" x2="133.772" y2="19.135" gradientUnits="userSpaceOnUse">
<stop stop-color="#182D55"/>
<stop offset="1" stop-color="#254773"/>
</linearGradient>
<linearGradient id="paint28_linear" x1="137.966" y1="15.6782" x2="137.966" y2="19.0687" gradientUnits="userSpaceOnUse">
<stop stop-color="#182D55"/>
<stop offset="1" stop-color="#254773"/>
</linearGradient>
<linearGradient id="paint29_linear" x1="142.652" y1="15.6836" x2="142.652" y2="19.0741" gradientUnits="userSpaceOnUse">
<stop stop-color="#182D55"/>
<stop offset="1" stop-color="#254773"/>
</linearGradient>
<linearGradient id="paint30_linear" x1="146.561" y1="15.6782" x2="146.561" y2="19.0742" gradientUnits="userSpaceOnUse">
<stop stop-color="#182D55"/>
<stop offset="1" stop-color="#254773"/>
</linearGradient>
<linearGradient id="paint31_linear" x1="150.237" y1="15.6836" x2="150.237" y2="19.0796" gradientUnits="userSpaceOnUse">
<stop stop-color="#182D55"/>
<stop offset="1" stop-color="#254773"/>
</linearGradient>
<linearGradient id="paint32_linear" x1="153.391" y1="15.623" x2="153.391" y2="19.135" gradientUnits="userSpaceOnUse">
<stop stop-color="#182D55"/>
<stop offset="1" stop-color="#254773"/>
</linearGradient>
<linearGradient id="paint33_linear" x1="157.086" y1="15.6836" x2="157.086" y2="19.0741" gradientUnits="userSpaceOnUse">
<stop stop-color="#182D55"/>
<stop offset="1" stop-color="#254773"/>
</linearGradient>
<linearGradient id="paint34_linear" x1="160.973" y1="15.6836" x2="160.973" y2="19.0741" gradientUnits="userSpaceOnUse">
<stop stop-color="#182D55"/>
<stop offset="1" stop-color="#254773"/>
</linearGradient>
<linearGradient id="paint35_linear" x1="165.126" y1="14.5847" x2="165.126" y2="19.0741" gradientUnits="userSpaceOnUse">
<stop stop-color="#182D55"/>
<stop offset="1" stop-color="#254773"/>
</linearGradient>
<linearGradient id="paint36_linear" x1="84.2948" y1="21.7524" x2="84.2948" y2="25.2644" gradientUnits="userSpaceOnUse">
<stop stop-color="#182D55"/>
<stop offset="1" stop-color="#254773"/>
</linearGradient>
<linearGradient id="paint37_linear" x1="87.9567" y1="21.8074" x2="87.9567" y2="25.1979" gradientUnits="userSpaceOnUse">
<stop stop-color="#182D55"/>
<stop offset="1" stop-color="#254773"/>
</linearGradient>
<linearGradient id="paint38_linear" x1="91.9766" y1="21.8074" x2="91.9766" y2="25.2586" gradientUnits="userSpaceOnUse">
<stop stop-color="#182D55"/>
<stop offset="1" stop-color="#254773"/>
</linearGradient>
<linearGradient id="paint39_linear" x1="96.0428" y1="21.7524" x2="96.0428" y2="25.2644" gradientUnits="userSpaceOnUse">
<stop stop-color="#182D55"/>
<stop offset="1" stop-color="#254773"/>
</linearGradient>
<linearGradient id="paint40_linear" x1="99.9665" y1="21.813" x2="99.9665" y2="25.2035" gradientUnits="userSpaceOnUse">
<stop stop-color="#182D55"/>
<stop offset="1" stop-color="#254773"/>
</linearGradient>
</defs>
</svg>
