<svg width="150" height="24" viewBox="0 0 150 24" fill="none" xmlns="http://www.w3.org/2000/svg">
<path d="M11.7538 23.5076C18.2453 23.5076 23.5076 18.2453 23.5076 11.7538C23.5076 5.26236 18.2453 0 11.7538 0C5.26236 0 0 5.26236 0 11.7538C0 18.2453 5.26236 23.5076 11.7538 23.5076Z" fill="#16932B"/>
<path d="M11.7538 22.2254C17.5371 22.2254 22.2254 17.5371 22.2254 11.7538C22.2254 5.97051 17.5371 1.28223 11.7538 1.28223C5.97051 1.28223 1.28223 5.97051 1.28223 11.7538C1.28223 17.5371 5.97051 22.2254 11.7538 22.2254Z" fill="#FF6927"/>
<path fill-rule="evenodd" clip-rule="evenodd" d="M20.3372 8.51261C20.5509 8.47699 20.6933 8.33452 20.6577 8.19205C20.6221 8.04958 20.444 7.97834 20.2303 8.01396C20.0166 8.04958 19.8741 8.19205 19.9098 8.33452C19.9454 8.47699 20.1235 8.54822 20.3372 8.51261Z" fill="white"/>
<path fill-rule="evenodd" clip-rule="evenodd" d="M7.0882 15.3512C7.05258 15.743 6.98135 16.1348 6.58955 16.0992C6.58955 16.0992 6.34023 16.0279 6.12652 16.0279C5.66349 16.0279 5.55664 16.2772 5.55664 16.4909C5.55664 17.0964 6.19776 17.2745 6.58955 17.2745C6.98135 17.2745 7.40876 17.1321 7.72932 16.8827C8.33481 16.4553 8.72661 15.4937 8.9047 15.0662C8.72661 14.995 8.5129 14.9238 8.33481 14.8525C8.01426 15.1731 7.55123 15.3512 7.0882 15.3512Z" fill="white"/>
<path fill-rule="evenodd" clip-rule="evenodd" d="M13.2503 13.7839C13.3215 14.0332 13.4284 14.5319 13.4996 14.7456C13.4996 14.7456 13.1434 14.888 13.1078 14.9237C13.0009 14.9593 13.0009 15.0661 13.0366 15.173C13.0722 15.2798 13.179 15.2798 13.2859 15.2442C13.7489 14.9949 15.0668 14.425 15.6366 14.9949C15.9572 15.2798 16.2421 16.2415 16.0284 16.8826C15.9216 17.2744 15.6366 17.4881 15.1736 17.5237C14.9243 17.5594 14.7106 17.4881 14.5681 17.3457C14.1763 16.9895 14.1763 16.2771 14.1763 16.2771C14.1763 16.2059 14.1407 16.1703 14.0695 16.1347C14.0339 16.099 13.9626 16.099 13.8914 16.1347C13.8914 16.1347 12.8941 16.847 12.0749 16.4552C10.8995 15.8853 11.1844 14.3538 11.1844 14.3182C11.1844 14.2113 11.1488 14.1401 11.042 14.1401C10.9351 14.1401 10.8639 14.1757 10.8639 14.2825C10.8639 14.2825 10.7927 14.71 10.8639 15.173C10.0091 15.0661 9.2611 14.9237 8.61998 14.6743C8.97615 14.2825 9.15424 13.7839 9.15424 13.214C9.15424 13.1072 9.08301 13.0359 8.97616 13.0359C8.8693 13.0359 8.79807 13.1072 8.79807 13.214C8.79807 14.2469 7.94324 15.0661 6.94595 15.0661C6.19798 15.0661 5.52125 14.6031 5.20069 13.8907C5.23631 13.7839 5.16507 13.7839 5.05822 13.7839C4.95136 13.8195 4.95136 13.9264 4.95136 13.9976C5.05822 14.2469 5.20069 14.4606 5.37878 14.6743C4.98698 15.5292 4.27463 16.4908 3.06363 16.1347C2.67184 16.0278 2.42251 15.7785 2.35128 15.4579C2.31566 15.2086 2.35128 14.9593 2.52937 14.8524C2.67184 14.7456 2.88554 14.71 3.09925 14.8168C3.70475 15.0305 4.06092 14.0332 4.4171 13.0715C4.59519 12.5373 4.84451 11.9318 5.0226 11.8249C5.23631 11.6825 5.77057 11.6825 6.05551 12.0742C6.09113 12.1811 6.12675 12.4304 6.12675 12.4304C6.12675 12.5017 6.2336 12.5729 6.30483 12.5373C6.41169 12.5373 6.4473 12.4304 6.4473 12.3592C6.26922 11.3263 6.55416 10.6852 6.80348 10.3646C6.80348 10.3646 4.95136 8.97552 5.23631 7.1234C5.23631 7.01655 5.30754 6.94531 5.34316 6.94531C5.37878 6.94531 5.45001 7.05217 5.45001 7.19464C5.55686 7.55081 5.73495 8.08508 6.2336 8.65496C6.69663 9.22484 7.08842 9.5454 7.48022 9.68787C7.51583 9.68787 8.40627 9.86596 10.0803 9.86596C11.042 9.86596 12.2886 9.7591 12.3598 9.72349C12.4311 10.1509 12.6448 10.8633 13.2147 11.5044C13.7489 12.1099 14.3188 12.3592 14.7462 12.5373C15.3517 12.7866 15.886 12.8935 16.2421 12.9647C16.2421 13.0003 16.2065 13.0003 16.2065 13.0359C15.9928 13.5702 15.6366 14.0332 15.138 14.425C14.7106 14.3894 14.2119 14.4962 13.8202 14.6387C13.7845 14.5319 13.7133 14.2469 13.5708 13.7483C13.5352 13.6414 13.464 13.6058 13.3571 13.6414C13.2859 13.6058 13.2503 13.7127 13.2503 13.7839Z" fill="white"/>
<path fill-rule="evenodd" clip-rule="evenodd" d="M17.1688 4.80841C16.8483 4.77279 16.4921 5.66323 16.3496 5.98379C16.6346 6.01941 16.9195 6.09065 17.2044 6.23312C17.2757 6.12626 17.3825 4.80841 17.1688 4.80841Z" fill="white"/>
<path d="M16.99 10.6497C16.99 10.6497 16.8831 10.6141 16.7407 10.6497C16.8831 11.0059 17.2037 11.2552 17.6311 11.362C18.3435 11.5401 19.1627 11.5045 20.0175 10.7209C20.4449 10.3291 20.8723 9.61678 20.9435 8.97567C20.8723 9.08252 20.7655 9.11814 20.6586 9.18937C20.1956 9.33184 19.6257 9.11814 19.4832 8.69073C19.3764 8.4414 19.4832 8.2277 19.6613 8.04961C19.5188 8.08523 19.3764 8.12084 19.1983 8.15646C18.7352 8.26331 18.3791 8.33455 18.201 8.19208C18.0585 8.04961 18.0229 7.8359 17.916 7.58658C17.8092 7.2304 17.7023 6.83861 17.3462 6.6249C16.5982 6.16187 15.7434 6.30435 15.7078 6.30435C15.6365 6.30435 15.6009 6.30435 15.5653 6.23311C15.5297 6.19749 15.4228 5.23582 15.2447 4.95088C15.0666 4.5947 14.9242 4.55908 14.8885 4.55908C14.5324 4.55908 13.9625 5.44952 13.7488 6.73176C13.7488 6.76737 13.7132 6.76737 13.7132 6.80299C13.2858 7.26602 12.7871 8.86881 12.7871 9.40308C12.7871 9.40308 12.7871 9.43869 12.7871 9.47431C12.8227 10.0086 13.7132 12.3237 16.3845 12.395C16.4201 12.395 16.4201 12.395 16.4557 12.395C17.4174 12.3237 18.4503 11.8963 18.9133 11.647C18.5928 11.7538 18.0229 11.7895 17.5243 11.6826C16.99 11.5401 16.6338 11.2196 16.4201 10.7922C16.3489 10.8278 16.3133 10.899 16.2776 11.0059C16.242 11.0771 16.1352 11.1127 16.0639 11.0771C15.9571 11.0415 15.9571 10.9346 15.9927 10.8634C16.2776 10.3291 16.8119 10.2579 17.0612 10.2935C17.1681 10.2935 17.2037 10.4004 17.2037 10.4716C17.1681 10.6141 17.0968 10.6497 16.99 10.6497ZM17.738 7.94276C17.8448 7.94276 17.916 8.04961 17.916 8.2277C17.916 8.37017 17.8092 8.51264 17.738 8.51264C17.6311 8.51264 17.5599 8.40578 17.5599 8.2277C17.5243 8.08523 17.6311 7.94276 17.738 7.94276ZM15.2091 6.37558C15.1379 6.4112 14.9954 6.48243 14.7817 6.48243C14.6036 6.51805 14.6036 6.37558 14.7461 5.98379C14.8885 5.62761 14.9954 5.44952 14.9954 5.44952C15.1379 5.30705 15.2447 6.37558 15.2091 6.37558ZM16.8831 9.08252C16.705 9.08252 16.5626 8.86881 16.5626 8.61949C16.5626 8.37017 16.705 8.12084 16.8831 8.12084C17.0612 8.12084 17.2037 8.33455 17.2037 8.58387C17.2037 8.8332 17.0612 9.08252 16.8831 9.08252Z" fill="white"/>
<path fill-rule="evenodd" clip-rule="evenodd" d="M16.1002 13.9265C15.9577 14.1402 15.7796 14.3183 15.5303 14.532C15.6371 14.5676 15.744 14.6388 15.8508 14.7101C15.9933 14.8525 16.1358 15.0662 16.2426 15.3156C16.5632 15.2087 16.8125 15.0662 16.8125 15.0662C16.8481 15.0306 16.9194 15.0306 16.955 15.0662C16.9906 15.1018 17.0262 15.1375 17.0618 15.2087C17.2043 16.206 17.6317 16.4909 18.0235 16.3485C18.3441 16.2416 18.5222 16.0279 18.5934 15.743C18.7359 15.1018 18.3797 14.2826 18.0591 13.9977C17.6673 13.6059 16.7769 13.7484 16.1002 13.9265Z" fill="white"/>
<path fill-rule="evenodd" clip-rule="evenodd" d="M16.4919 12.4663L16.2782 12.8937L16.2426 12.9293C15.4946 12.8581 12.8946 12.2882 12.2891 9.6881C12.2891 9.6881 12.2891 9.65248 12.3247 9.65248L12.7165 9.51001C12.7521 9.51001 12.7521 9.51001 12.7521 9.54563C12.8589 10.1511 13.9275 12.3238 16.4563 12.4307C16.4919 12.4307 16.5276 12.4307 16.4919 12.4663Z" fill="#1F9E38"/>
<path fill-rule="evenodd" clip-rule="evenodd" d="M33.1486 6.50866C33.1486 6.08336 33.503 5.70532 33.9519 5.70532H35.1333C35.5586 5.70532 35.9366 6.05974 35.9366 6.50866V17.0465C35.9366 17.4718 35.5822 17.8499 35.1333 17.8499H33.9519C33.5266 17.8499 33.1486 17.4955 33.1486 17.0465V13.1952C32.5343 13.6678 31.6837 13.9041 30.5496 13.9041C28.8011 13.9041 26.8164 12.959 26.8164 10.0292V6.50866C26.8164 6.08336 27.1708 5.70532 27.6197 5.70532H28.8011C29.2264 5.70532 29.6045 6.05974 29.6045 6.50866V9.2022C29.6045 10.8089 30.266 11.305 31.3056 11.305C31.9436 11.305 32.5815 11.0924 33.1486 10.6671V6.50866Z" fill="#FF6927"/>
<path fill-rule="evenodd" clip-rule="evenodd" d="M46.0485 17.0229C46.0485 17.4482 45.6941 17.8262 45.2452 17.8262H39.4801C39.0548 17.8262 38.6768 17.4718 38.6768 17.0229V6.50866C38.6768 6.08336 39.0312 5.70532 39.4801 5.70532H45.0798C45.5051 5.70532 45.8832 6.05974 45.8832 6.50866V7.50101C45.8832 7.92631 45.5287 8.30435 45.0798 8.30435H41.4648V10.4308H44.56C44.9853 10.4308 45.3633 10.7852 45.3633 11.2342V12.2265C45.3633 12.6518 45.0089 13.0299 44.56 13.0299H41.4648V15.2272H45.2452C45.6705 15.2272 46.0485 15.5816 46.0485 16.0306V17.0229Z" fill="#FF6927"/>
<path fill-rule="evenodd" clip-rule="evenodd" d="M52.3804 17.8262C51.9552 17.8262 51.5771 17.4718 51.5771 17.0229V8.30435H48.7418C48.3165 8.30435 47.9385 7.94994 47.9385 7.50101V6.50866C47.9385 6.08336 48.2929 5.70532 48.7418 5.70532H57.2005C57.6258 5.70532 58.0038 6.05974 58.0038 6.50866V7.50101C58.0038 7.92631 57.6494 8.30435 57.2005 8.30435H54.3652V17.0229C54.3652 17.4482 54.0107 17.8262 53.5618 17.8262H52.3804Z" fill="#FF6927"/>
<path d="M60.083 6.50866C60.083 6.08336 60.4374 5.70532 60.8863 5.70532H62.0677C62.493 5.70532 62.8711 6.05974 62.8711 6.50866V9.50935C63.2491 9.4621 63.6271 9.43847 63.9343 9.43847C66.8405 9.43847 68.3526 10.9743 68.3526 13.526C68.3526 16.1487 66.5097 17.8735 63.3436 17.8735C62.6584 17.8735 61.8314 17.8499 60.8863 17.8499C60.461 17.8499 60.083 17.4718 60.083 17.0465V6.50866ZM62.8474 15.2036C63.2727 15.2508 63.5326 15.2745 63.6744 15.2745C64.8321 15.2745 65.3992 14.731 65.3992 13.5969C65.3992 12.5573 64.7376 12.0375 63.6744 12.0375C63.509 12.0375 63.2255 12.0611 62.8474 12.132V15.2036ZM72.2748 17.0229C72.2748 17.4482 71.9204 17.8262 71.4715 17.8262H70.2901C69.8648 17.8262 69.4868 17.4718 69.4868 17.0229V6.50866C69.4868 6.08336 69.8412 5.70532 70.2901 5.70532H71.4715C71.8968 5.70532 72.2748 6.05974 72.2748 6.50866V17.0229Z" fill="#FF6927"/>
<path d="M82.5063 6.79238C83.286 7.54846 83.6641 8.51719 83.6641 9.67494C83.6641 10.8091 83.2388 11.7778 82.4355 12.5575C81.6321 13.3608 80.5216 13.7625 79.1749 13.7625C78.5605 13.7625 78.1116 13.7389 77.8281 13.7152V17.0467C77.8281 17.472 77.4737 17.8501 77.0248 17.8501H75.8434C75.4181 17.8501 75.04 17.4956 75.04 17.0467V6.53248C75.04 6.10718 75.3945 5.70551 75.8434 5.70551C77.072 5.68188 78.0407 5.68188 78.7496 5.68188C80.4744 5.68188 81.7266 6.05993 82.5063 6.79238ZM77.8281 11.069C78.2534 11.1162 78.7023 11.1635 79.104 11.1635C79.9782 11.1635 80.7343 10.7382 80.7343 9.67494C80.7343 8.72984 80.1908 8.28091 79.0567 8.28091C79.0095 8.28091 78.6078 8.30454 77.8517 8.32817V11.069H77.8281Z" fill="#FF6927"/>
<path fill-rule="evenodd" clip-rule="evenodd" d="M93.28 17.0229C93.28 17.4482 92.9256 17.8262 92.4767 17.8262H86.7115C86.2862 17.8262 85.9082 17.4718 85.9082 17.0229V6.50866C85.9082 6.08336 86.2626 5.70532 86.7115 5.70532H92.3113C92.7366 5.70532 93.1146 6.05974 93.1146 6.50866V7.50101C93.1146 7.92631 92.7602 8.30435 92.3113 8.30435H88.6963V10.4308H91.7915C92.2168 10.4308 92.5948 10.7852 92.5948 11.2342V12.2265C92.5948 12.6518 92.2404 13.0299 91.7915 13.0299H88.6963V15.2272H92.5003C92.9256 15.2272 93.3036 15.5816 93.3036 16.0306V17.0229H93.28Z" fill="#FF6927"/>
<path fill-rule="evenodd" clip-rule="evenodd" d="M108.875 17.0229C108.875 17.4482 108.52 17.8262 108.071 17.8262H106.89C106.465 17.8262 106.087 17.4718 106.087 17.0229V8.30435H103.44L103.181 10.5962C102.448 16.4086 101.338 17.8971 98.8803 17.9208C98.4077 17.9208 98.1006 17.6372 98.1006 17.2119V16.1723C98.1006 15.6289 98.266 15.4162 98.833 15.1563C99.3056 14.9437 99.7073 14.3766 99.9672 13.4315C100.227 12.4864 100.463 10.738 100.652 8.13896L100.771 6.50866C100.818 6.03611 101.196 5.70532 101.621 5.70532H108.071C108.497 5.70532 108.875 6.05974 108.875 6.50866V17.0229Z" fill="#FF6927"/>
<path d="M118.987 15.2745H114.19L113.411 17.2592C113.245 17.6372 112.985 17.8262 112.584 17.8262H111.521C111.095 17.8262 110.788 17.4718 110.788 17.0702C110.788 16.9757 110.812 16.8575 110.835 16.7866L115.206 6.27238C115.372 5.89434 115.655 5.70532 116.057 5.70532H117.309C117.711 5.70532 117.994 5.89434 118.16 6.27238L122.531 16.7866C122.555 16.8811 122.578 16.9757 122.578 17.0702C122.578 17.4718 122.247 17.8262 121.846 17.8262H120.617C120.215 17.8262 119.932 17.6372 119.79 17.2592L118.987 15.2745ZM116.6 9.24945L115.23 12.6754H117.947L116.6 9.24945Z" fill="#FF6927"/>
<path fill-rule="evenodd" clip-rule="evenodd" d="M134.274 17.0229C134.274 17.4482 133.92 17.8262 133.471 17.8262H132.29C131.864 17.8262 131.486 17.4718 131.486 17.0229V8.30435H127.233V17.0229C127.233 17.4482 126.879 17.8262 126.43 17.8262H125.249C124.823 17.8262 124.445 17.4718 124.445 17.0229V6.50866C124.445 6.08336 124.8 5.70532 125.249 5.70532H133.447C133.873 5.70532 134.251 6.05974 134.251 6.50866V17.0229H134.274Z" fill="#FF6927"/>
<path d="M137.038 6.50866C137.038 6.08336 137.392 5.70532 137.841 5.70532H139.023C139.448 5.70532 139.826 6.05974 139.826 6.50866V9.50935C140.204 9.4621 140.559 9.43847 140.889 9.43847C143.796 9.43847 145.308 10.9743 145.308 13.526C145.308 16.1487 143.465 17.8735 140.299 17.8735C139.613 17.8735 138.787 17.8499 137.841 17.8499C137.416 17.8499 137.038 17.4718 137.038 17.0465V6.50866ZM139.803 15.2036C140.228 15.2508 140.488 15.2745 140.606 15.2745C141.764 15.2745 142.331 14.731 142.331 13.5969C142.331 12.5573 141.669 12.0375 140.606 12.0375C140.44 12.0375 140.157 12.0611 139.779 12.132V15.2036H139.803ZM149.254 17.0229C149.254 17.4482 148.899 17.8262 148.45 17.8262H147.269C146.844 17.8262 146.465 17.4718 146.465 17.0229V6.50866C146.465 6.08336 146.82 5.70532 147.269 5.70532H148.45C148.875 5.70532 149.254 6.05974 149.254 6.50866V17.0229Z" fill="#FF6927"/>
</svg>
