<svg width="66" height="31" viewBox="0 0 66 31" fill="none" xmlns="http://www.w3.org/2000/svg">
<path fill-rule="evenodd" clip-rule="evenodd" d="M58.884 22.1607C58.1343 21.2229 56.9621 20.754 55.368 20.754H54.972C54.2257 20.7467 53.4847 20.8811 52.7884 21.15C52.1331 21.4052 51.5218 21.7617 50.9769 22.2063C50.4454 22.643 49.9931 23.168 49.6398 23.7582C49.2879 24.3344 49.044 24.97 48.9201 25.6337C48.8041 26.2304 48.8111 26.8445 48.9405 27.4384C49.0596 27.9964 49.3098 28.5181 49.6704 28.9602C50.0549 29.4201 50.5431 29.7822 51.0948 30.0166C51.7607 30.296 52.479 30.4316 53.2014 30.4132H53.5981C54.3444 30.42 55.0854 30.2854 55.7817 30.0166C56.437 29.7618 57.0481 29.4053 57.5925 28.9602C58.1158 28.5293 58.5636 28.014 58.9174 27.4357C59.2638 26.8836 59.5035 26.2715 59.6241 25.631C59.8804 24.2563 59.6343 23.0998 58.8846 22.1607H58.884ZM50.6348 13.108C50.5442 11.7775 50.1105 10.4931 49.376 9.38002C48.6522 8.30185 47.5897 7.45063 46.1885 6.82499C44.7866 6.20003 42.7632 5.88721 40.508 5.88721C38.1295 5.88721 36.0461 6.21502 34.2557 6.87133C32.4653 7.52764 30.9442 8.41089 29.6929 9.5211C28.4542 10.6133 27.4385 11.9347 26.7017 13.4126C25.9536 14.9153 25.4222 16.5165 25.1233 18.1683C24.8452 19.6437 24.7497 21.1478 24.8391 22.6466C24.9071 24.0319 25.3585 25.3711 26.1428 26.5149C26.9211 27.6401 28.0968 28.6283 29.6759 29.3208C31.2543 30.0132 33.4011 30.3526 36.1197 30.3526C36.9314 30.3526 37.8119 30.3131 38.7613 30.2347C39.7532 30.1522 40.7404 30.02 41.7191 29.8387C42.7554 29.6469 43.7801 29.3964 44.788 29.0884C45.5063 28.8702 46.2118 28.6122 46.9014 28.3155L45.6678 22.468C41.4403 23.2232 37.8092 23.4883 36.2158 22.224C35.8873 21.9596 35.5554 21.3599 35.4552 20.891C35.3543 20.4221 35.3693 19.8346 35.5015 19.1095H50.1502L50.508 16.7139C50.6839 15.5206 50.7261 14.3109 50.6348 13.108ZM41.2795 16.014H36.1687C36.3725 14.9058 36.7494 13.9728 37.3001 13.2129C37.8501 12.4544 38.6175 12.0748 39.6023 12.0748C40.5455 12.0748 41.1152 12.4339 41.3115 13.1516C41.5078 13.8692 41.4969 14.824 41.2788 16.0153V16.014H41.2795Z" fill="#ED0E0E"/>
<path fill-rule="evenodd" clip-rule="evenodd" d="M24.6133 27.3245C23.6962 25.987 23.1667 24.4221 23.0832 22.8025C22.9878 21.1928 23.0901 19.5769 23.3872 17.991C23.7143 16.2076 24.2907 14.4792 25.0992 12.8564C25.5484 11.9602 26.0905 11.1136 26.7165 10.3306C27.9222 8.7608 29.4392 7.45685 31.1723 6.50046H26.435L19.1018 6.51341L17.3053 16.1842C12.9142 17.1779 13.1889 15.0747 13.3565 14.1683L14.7823 6.49569H1.21788L0 13.0574H2.28311L1.87692 15.2621C1.58386 16.8569 1.59068 18.1784 1.89805 19.2252C2.20541 20.2727 2.71588 21.1089 3.42943 21.7353C4.17564 22.3768 5.06648 22.8275 6.02536 23.0486C7.08854 23.3294 8.18579 23.4554 9.28509 23.4234C13.2243 23.2448 15.2805 22.2348 16.2946 21.6917L15.7521 24.689C15.442 26.3771 15.7739 27.745 16.7478 28.7918C17.7217 29.8386 19.2367 30.2775 21.2908 30.2775C22.2616 30.2864 23.232 30.2372 24.1969 30.1303C24.7373 30.0683 25.838 29.8986 27.0545 29.6587C26.8398 29.512 26.6313 29.3565 26.4295 29.1925C25.7271 28.6721 25.1138 28.0412 24.6133 27.3245ZM52.8591 0.507812L51.9199 19.1673H59.4051L65.3848 0.507812H52.8591Z" fill="#ED0E0E"/>
</svg>
