<svg width="16" height="19" viewBox="0 0 16 19" fill="none" xmlns="http://www.w3.org/2000/svg">
<path d="M14.3146 9.26346H15.9987C15.9987 4.48986 12.7375 0.889648 8.41211 0.889648V2.7507C11.8324 2.7507 14.3146 5.48924 14.3146 9.26346Z" fill="#00BC80"/>
<path d="M8.42045 6.47263C10.1912 6.47263 10.9465 7.30731 10.9465 9.26421H12.6306C12.6306 6.26326 11.136 4.61157 8.42045 4.61157V6.47263ZM11.3018 11.5375C10.9659 11.1997 10.4472 11.2174 10.1306 11.5775L8.11564 13.8675C7.63064 13.7652 6.65557 13.4292 5.65189 12.3228C4.6482 11.2127 4.34423 10.1324 4.25413 9.60013L6.32466 7.37245C6.65136 7.02257 6.66652 6.45029 6.36087 6.07808L3.2496 2.29735C2.94394 1.92421 2.42442 1.88885 2.07835 2.2164L0.25116 3.94811C0.10549 4.11002 0.0187619 4.32404 0.00697359 4.55202C-0.00565673 4.78465 -0.246475 10.2952 3.62009 14.5701C6.99323 18.2968 11.2185 18.5695 12.3822 18.5695C12.5523 18.5695 12.6567 18.5639 12.6844 18.562C12.8907 18.549 13.0844 18.4532 13.2301 18.2912L14.7962 16.2711C15.0935 15.8886 15.0598 15.3154 14.7238 14.9767L11.3018 11.5375Z" fill="#00BC80"/>
</svg>
