<svg width="23" height="13" viewBox="0 0 23 13" fill="none" xmlns="http://www.w3.org/2000/svg">
<path d="M22.7894 11.6068C22.7626 11.5521 22.7378 11.5063 22.7147 11.4698C22.3328 10.8127 21.6036 10.0058 20.5271 9.04948L20.504 9.02772L20.4926 9.01652L20.4812 9.00595H20.4698C19.9811 8.56042 19.6718 8.26116 19.5422 8.10753C19.3055 7.81595 19.252 7.52021 19.3819 7.22095C19.4739 6.99466 19.8174 6.51649 20.4129 5.7861C20.7259 5.39946 20.974 5.08931 21.1574 4.85503C22.4784 3.17596 23.0508 2.1031 22.8754 1.63549L22.8064 1.52603C22.7606 1.46009 22.6421 1.39992 22.4513 1.34519C22.2604 1.29046 22.0161 1.28182 21.7185 1.31798L18.4198 1.34039C18.3434 1.33303 18.2671 1.33495 18.1905 1.34551C18.1141 1.35671 18.0646 1.36759 18.0415 1.37848C18.0184 1.38968 17.9996 1.39864 17.9842 1.40568L17.9384 1.43865C17.9002 1.46041 17.8584 1.49882 17.8125 1.55387C17.7667 1.6086 17.7282 1.6723 17.698 1.74559C17.3392 2.62897 16.9308 3.45026 16.4725 4.20977C16.1899 4.66235 15.9302 5.05507 15.6938 5.38698C15.4572 5.71952 15.2587 5.96405 15.0983 6.12056C14.938 6.2774 14.7927 6.40382 14.6631 6.49824C14.5332 6.59362 14.4338 6.63331 14.3655 6.61891C14.2966 6.6045 14.2316 6.58978 14.1707 6.57474C14.0639 6.50912 13.9775 6.41983 13.9129 6.30652C13.848 6.19354 13.8041 6.05111 13.781 5.87956C13.7583 5.708 13.7445 5.56013 13.7412 5.43595C13.7372 5.31176 13.7392 5.13668 13.7469 4.9104C13.7546 4.68411 13.7583 4.53112 13.7583 4.45046C13.7583 4.17329 13.764 3.87211 13.7757 3.54692C13.7871 3.22205 13.7968 2.96472 13.8041 2.77492C13.8118 2.58544 13.8155 2.38444 13.8155 2.17256C13.8155 1.96132 13.8021 1.79488 13.7753 1.67422C13.7486 1.55387 13.7084 1.43737 13.6552 1.32375C13.6016 1.21076 13.5233 1.12306 13.4202 1.06129C13.3171 0.999199 13.1892 0.949909 13.0365 0.913422C12.6315 0.825724 12.1163 0.778674 11.4903 0.770993C10.0699 0.75691 9.15736 0.844608 8.75264 1.03409C8.59229 1.11474 8.447 1.22389 8.31745 1.36279C8.17986 1.52347 8.16078 1.61148 8.26021 1.62525C8.71849 1.69118 9.04287 1.84833 9.23368 2.09638L9.30264 2.22761C9.35587 2.32299 9.40943 2.4907 9.46299 2.73139C9.51655 2.9724 9.5507 3.2387 9.5661 3.53092C9.60426 4.06383 9.60426 4.51992 9.5661 4.89984C9.52793 5.27975 9.49178 5.57517 9.4573 5.78642C9.42282 5.9983 9.37127 6.16954 9.30264 6.30108C9.23368 6.43295 9.18816 6.51329 9.16506 6.54241C9.14196 6.57154 9.12321 6.58978 9.10781 6.59714C9.00839 6.63331 8.90562 6.65187 8.7985 6.65187C8.69137 6.65187 8.56182 6.60066 8.40884 6.49824C8.25619 6.39646 8.09751 6.25563 7.93348 6.07672C7.76912 5.89812 7.58433 5.64783 7.37779 5.32648C7.17158 5.00546 6.95766 4.62586 6.73639 4.18769L6.55328 3.86987C6.43879 3.66566 6.28212 3.368 6.08361 2.97752C5.8851 2.58704 5.70935 2.20937 5.5567 1.84385C5.49544 1.69086 5.40405 1.57404 5.28187 1.49338L5.22462 1.46041C5.18646 1.43129 5.1252 1.40024 5.04118 1.36759C4.95682 1.33463 4.86945 1.31094 4.77772 1.29622L1.63937 1.31798C1.31867 1.31798 1.10108 1.38776 0.986592 1.52635L0.94073 1.59196C0.917632 1.62877 0.90625 1.68734 0.90625 1.76736C0.90625 1.84801 0.929348 1.94627 0.97521 2.06278C1.43349 3.09243 1.93161 4.08527 2.4699 5.0413C3.00853 5.99798 3.47585 6.76838 3.87321 7.35218C4.27023 7.93662 4.67495 8.48745 5.08737 9.00595C5.49979 9.52446 5.77262 9.85637 5.90619 10.0023C6.03976 10.1486 6.14454 10.258 6.2212 10.331L6.50742 10.5941C6.69053 10.7692 6.96001 10.9792 7.31485 11.2237C7.67003 11.4685 8.06303 11.7092 8.49454 11.9461C8.9257 12.1836 9.42818 12.3766 10.0006 12.5267C10.5734 12.6765 11.1308 12.7366 11.6727 12.7072H12.99C13.2575 12.6854 13.4597 12.6054 13.5969 12.4662L13.6428 12.4114C13.6732 12.3679 13.702 12.3001 13.7288 12.2092C13.7553 12.1179 13.769 12.0174 13.769 11.908C13.7609 11.594 13.7861 11.3107 13.8433 11.0592C13.9005 10.8073 13.9655 10.6175 14.0381 10.4895C14.1108 10.3621 14.1924 10.2542 14.2845 10.1665C14.3762 10.0788 14.4408 10.0263 14.4793 10.0078C14.5175 9.98983 14.5483 9.97703 14.5711 9.96935C14.7542 9.9111 14.9698 9.96775 15.2181 10.139C15.4662 10.3109 15.6992 10.5221 15.9168 10.7743C16.1344 11.0262 16.3958 11.3088 16.7015 11.6231C17.0068 11.9371 17.2739 12.1704 17.5032 12.3238L17.7325 12.4556C17.8852 12.543 18.0837 12.6233 18.328 12.6966C18.5724 12.7693 18.7863 12.7878 18.9694 12.7514L21.9016 12.7072C22.1918 12.7072 22.4171 12.6617 22.5775 12.5702C22.7378 12.4796 22.8332 12.3785 22.8637 12.269C22.8941 12.1596 22.8961 12.036 22.8694 11.8968C22.8426 11.7582 22.8158 11.6615 22.7894 11.6068Z" fill="#00BC80"/>
</svg>
